<svg xmlns="http://www.w3.org/2000/svg" viewBox="0 0 54.04 47.15"><defs><style>.cls-1{isolation:isolate;}.cls-2{font-size:9px;stroke:#fff;stroke-miterlimit:10;font-family:DBHelvethaicaX-55Regular, DB Helvethaica X;}.cls-3{fill:#d9d9d9;}.cls-4{fill:#c06c09;}.cls-5{fill:#fecd0e;}.cls-6{fill:#f4a600;}.cls-7{fill:#262529;}.cls-8{fill:#303030;}.cls-12,.cls-9{mix-blend-mode:screen;}.cls-10{fill:#2b2b2b;}.cls-11{fill:#504e51;}.cls-12,.cls-13{fill:#fff;}.cls-14{opacity:0.5;}.cls-15{fill:#527275;}.cls-16{opacity:0.04;}.cls-17{fill:#153e49;}.cls-18{fill:#e6e6e6;}.cls-19{opacity:0.22;}.cls-20{fill:#8cad81;}.cls-21{fill:#f7d77f;}.cls-22{fill:#e5c573;}</style></defs><title>insurance-01</title><g class="cls-1"><g id="Layer_2" data-name="Layer 2"><g id="Layer_1-2" data-name="Layer 1"><text class="cls-2" transform="translate(1.4 43.83)">ไม่ต้องตรวจสภาพรถ</text><path d="M1,39l.27-.46H3l.13.46a.61.61,0,0,0-.21,0,.51.51,0,0,0-.17.11.51.51,0,0,0-.12.18.68.68,0,0,0,0,.25v3.82h.39v.46h-1V39.61a.87.87,0,0,1,0-.16.8.8,0,0,1,0-.16.72.72,0,0,1,.08-.14.49.49,0,0,1,.1-.11Z"/><path d="M3.52,43.9V40.21h.59V42.3a1.5,1.5,0,0,0,.07.46,1,1,0,0,0,.21.37,1,1,0,0,0,.35.24,1.23,1.23,0,0,0,.48.09.85.85,0,0,0,.31-.05.68.68,0,0,0,.24-.15A.65.65,0,0,0,5.92,43a.83.83,0,0,0,.05-.3v-2.5h.59v2.42a2.35,2.35,0,0,1-.06.55,1.08,1.08,0,0,1-.21.43.94.94,0,0,1-.39.28,1.65,1.65,0,0,1-.61.1,1.46,1.46,0,0,1-.72-.17,1.24,1.24,0,0,1-.49-.51v.59Z"/><path d="M6,39.6V38.47h.58V39.6Z"/><path d="M7.3,43.9V41.67a2.58,2.58,0,0,1,0-.34A1.94,1.94,0,0,1,7.39,41a1.27,1.27,0,0,1,.13-.29,1.1,1.1,0,0,1,.21-.25A1.15,1.15,0,0,1,8,40.29a1.54,1.54,0,0,1,.38-.11l.48.51.45-.51a1.36,1.36,0,0,1,.55.19,1.11,1.11,0,0,1,.35.34,1.39,1.39,0,0,1,.18.45,2.58,2.58,0,0,1,.05.51V43.9H9.86V41.6a1.53,1.53,0,0,0,0-.25,1.2,1.2,0,0,0-.07-.25.82.82,0,0,0-.13-.22.43.43,0,0,0-.19-.14l-.5.51,0,0H8.83l0,0-.51-.51a.46.46,0,0,0-.19.14A.81.81,0,0,0,8,41.1a1.29,1.29,0,0,0-.07.25,1.5,1.5,0,0,0,0,.25v1.54l.84-1H8.39v-.46h.94v.46L7.89,43.9Z"/><path d="M8.48,39v-.42h.85v.51a1.43,1.43,0,0,0,.35,0A.94.94,0,0,0,9.94,39a.49.49,0,0,0,.17-.16.38.38,0,0,0,.06-.2h.56a.8.8,0,0,1-.09.37.92.92,0,0,1-.27.31,1.38,1.38,0,0,1-.44.22,2.23,2.23,0,0,1-.63.08H8.8V39Z"/><path d="M11,42.07v-.21h1.6v.46h-1a1.51,1.51,0,0,0,.07.47,1.1,1.1,0,0,0,.2.37.91.91,0,0,0,.31.24.93.93,0,0,0,.4.08.86.86,0,0,0,.73-.37,1.36,1.36,0,0,0,.2-.44,2.4,2.4,0,0,0,.07-.6,2.62,2.62,0,0,0-.06-.61,1.34,1.34,0,0,0-.19-.45.81.81,0,0,0-.31-.27,1,1,0,0,0-.44-.09,1.16,1.16,0,0,0-.35.05,1,1,0,0,0-.29.15.77.77,0,0,0-.2.22.82.82,0,0,0-.11.29h-.62a1.74,1.74,0,0,1,.18-.5,1.34,1.34,0,0,1,.32-.39,1.41,1.41,0,0,1,.46-.25,2,2,0,0,1,.62-.09,1.71,1.71,0,0,1,.75.15,1.34,1.34,0,0,1,.5.41,1.65,1.65,0,0,1,.28.62,3.3,3.3,0,0,1,.08.77,3.25,3.25,0,0,1,0,.5,2.27,2.27,0,0,1-.12.46,1.66,1.66,0,0,1-.21.39,1.31,1.31,0,0,1-.31.3,1.38,1.38,0,0,1-.41.2,2,2,0,0,1-1,0,1.44,1.44,0,0,1-.41-.2,1.24,1.24,0,0,1-.3-.3,1.71,1.71,0,0,1-.2-.39,2.3,2.3,0,0,1-.12-.46A3.31,3.31,0,0,1,11,42.07Z"/><path d="M14.59,41.74h.61l.55,1.54a.31.31,0,0,0,.11.14.26.26,0,0,0,.15,0,.27.27,0,0,0,.21-.08.26.26,0,0,0,.07-.18V40.67h-.51v-.46h1.11v2.89a1.08,1.08,0,0,1-.07.4.76.76,0,0,1-.19.28.69.69,0,0,1-.28.16A1.21,1.21,0,0,1,16,44a1,1,0,0,1-.32,0,.7.7,0,0,1-.24-.14.8.8,0,0,1-.17-.21,1.66,1.66,0,0,1-.12-.28Z"/><path d="M17.61,43.9V41.67a2.58,2.58,0,0,1,0-.34A1.94,1.94,0,0,1,17.7,41a1.27,1.27,0,0,1,.13-.29,1.1,1.1,0,0,1,.21-.25,1.15,1.15,0,0,1,.29-.19,1.54,1.54,0,0,1,.38-.11l.48.51.45-.51a1.36,1.36,0,0,1,.55.19,1.11,1.11,0,0,1,.35.34,1.39,1.39,0,0,1,.18.45,2.58,2.58,0,0,1,.05.51V43.9h-.59V41.6a1.53,1.53,0,0,0,0-.25,1.2,1.2,0,0,0-.07-.25.82.82,0,0,0-.13-.22.43.43,0,0,0-.19-.14l-.5.51,0,0h-.09l0,0-.51-.51a.46.46,0,0,0-.19.14.81.81,0,0,0-.12.22,1.29,1.29,0,0,0-.07.25,1.5,1.5,0,0,0,0,.25v1.54l.84-1H18.7v-.46h.94v.46L18.2,43.9Z"/><path d="M21.31,42.76h.62a.75.75,0,0,0,.23.54.87.87,0,0,0,.58.17h.16l.16,0,.15-.06a.48.48,0,0,0,.13-.1.44.44,0,0,0,.09-.15.65.65,0,0,0,0-.21.47.47,0,0,0,0-.22.51.51,0,0,0-.15-.17,1.33,1.33,0,0,0-.26-.14l-.37-.15-.33-.13L22,42l-.24-.15a1,1,0,0,1-.19-.18.77.77,0,0,1-.12-.22.85.85,0,0,1,0-.28,1,1,0,0,1,0-.31.8.8,0,0,1,.13-.25.92.92,0,0,1,.2-.19,1.15,1.15,0,0,1,.25-.13l.28-.08.29,0a2.42,2.42,0,0,1,.52.05,1.08,1.08,0,0,1,.42.19.92.92,0,0,1,.28.35,1.39,1.39,0,0,1,.12.54h-.59A.93.93,0,0,0,23.3,41a.53.53,0,0,0-.15-.19.61.61,0,0,0-.21-.11,1,1,0,0,0-.26,0l-.22,0a.69.69,0,0,0-.21.08.48.48,0,0,0-.15.15.41.41,0,0,0-.06.23.38.38,0,0,0,.06.21.52.52,0,0,0,.16.15,1.52,1.52,0,0,0,.26.12l.35.13.42.17.31.17a1.23,1.23,0,0,1,.22.17.76.76,0,0,1,.14.19.8.8,0,0,1,.08.22,1.36,1.36,0,0,1,0,.26,1.1,1.1,0,0,1-.11.51.89.89,0,0,1-.29.33,1.22,1.22,0,0,1-.43.18,2.53,2.53,0,0,1-.54.05,2,2,0,0,1-.53-.07,1.19,1.19,0,0,1-.43-.21,1,1,0,0,1-.3-.38A1.39,1.39,0,0,1,21.31,42.76Z"/><path d="M24.54,42.65h.62a1.14,1.14,0,0,0,.08.37.82.82,0,0,0,.16.26.64.64,0,0,0,.23.16.77.77,0,0,0,.29.05.76.76,0,0,0,.36-.08.71.71,0,0,0,.27-.26,1.41,1.41,0,0,0,.17-.44,3.48,3.48,0,0,0,0-1.28,1.41,1.41,0,0,0-.17-.44.74.74,0,0,0-.27-.26.73.73,0,0,0-.36-.09.77.77,0,0,0-.29.05.66.66,0,0,0-.23.16.8.8,0,0,0-.16.27,1.33,1.33,0,0,0-.08.37h-.62a1.53,1.53,0,0,1,.11-.54,1.23,1.23,0,0,1,.28-.42,1.32,1.32,0,0,1,.43-.28,1.59,1.59,0,0,1,1.21,0,1.27,1.27,0,0,1,.46.39,1.72,1.72,0,0,1,.27.61,3.59,3.59,0,0,1,0,1.58,1.72,1.72,0,0,1-.27.61,1.25,1.25,0,0,1-.46.39,1.49,1.49,0,0,1-.66.14,1.52,1.52,0,0,1-.55-.1,1.22,1.22,0,0,1-.43-.28,1.28,1.28,0,0,1-.28-.43A1.51,1.51,0,0,1,24.54,42.65Z"/><path d="M27.85,41.29a1.29,1.29,0,0,1,.16-.46,1.27,1.27,0,0,1,.32-.36,1.42,1.42,0,0,1,.46-.24,2,2,0,0,1,.6-.08l.33,0a1.64,1.64,0,0,1,.32.08,1.29,1.29,0,0,1,.29.15,1,1,0,0,1,.23.24,1.15,1.15,0,0,1,.16.33,1.47,1.47,0,0,1,.05.44,1.6,1.6,0,0,1,0,.34c0,.13-.06.26-.11.41s-.09.29-.15.45l-.17.46-.18.44-.18.4h-.83l-.58-1.7h-.48v-.46H29l.54,1.63.12-.29.13-.33.13-.34c0-.12.08-.23.11-.34a3,3,0,0,0,.07-.32,1.29,1.29,0,0,0,0-.29.81.81,0,0,0-.2-.62.85.85,0,0,0-.62-.21.81.81,0,0,0-.53.17.84.84,0,0,0-.27.48Z"/><path d="M31.35,43a1.31,1.31,0,0,1,0-.38.93.93,0,0,1,.13-.28.86.86,0,0,1,.2-.2A1.22,1.22,0,0,1,32,42l.29-.08.31-.06a1.28,1.28,0,0,1,.28-.07l.28,0,.26,0a.94.94,0,0,0,.22-.08.41.41,0,0,0,.15-.13.35.35,0,0,0,.05-.2.78.78,0,0,0,0-.24.5.5,0,0,0-.09-.17.45.45,0,0,0-.14-.11l-.17-.07-.19,0H33a1.69,1.69,0,0,0-.36,0,.75.75,0,0,0-.28.12.59.59,0,0,0-.19.22.83.83,0,0,0-.08.34h-.62a1.41,1.41,0,0,1,.07-.4,1.05,1.05,0,0,1,.17-.31,1,1,0,0,1,.25-.23,1.5,1.5,0,0,1,.31-.15,1.91,1.91,0,0,1,.37-.09l.4,0,.32,0,.32.06a.45.45,0,0,0,.18,0A.39.39,0,0,0,34,40.1a.42.42,0,0,0,.08-.12.39.39,0,0,0,0-.13h.65a.67.67,0,0,1,0,.2.73.73,0,0,1-.1.2.8.8,0,0,1-.17.17.77.77,0,0,1-.27.11.87.87,0,0,1,.17.29,1.15,1.15,0,0,1,.06.39V43.9h-.59V42a.62.62,0,0,1-.22.09l-.28,0-.31,0-.31.06-.28.08a.83.83,0,0,0-.24.12.56.56,0,0,0-.17.2.61.61,0,0,0-.06.29.54.54,0,0,0,.07.28.52.52,0,0,0,.17.18.7.7,0,0,0,.24.1l.26,0h.19l.17,0v.44l-.24.05-.26,0a2.05,2.05,0,0,1-.47-.05,1.06,1.06,0,0,1-.39-.17.84.84,0,0,1-.26-.31A1,1,0,0,1,31.35,43Z"/><path d="M35,43.9v-.46h.36V41.91a1.42,1.42,0,0,0,0-.18.62.62,0,0,0,0-.17.69.69,0,0,0-.09-.15.54.54,0,0,0-.15-.12,1.46,1.46,0,0,1,.16-.42,1.31,1.31,0,0,1,.32-.37,1.61,1.61,0,0,1,.49-.27,2.09,2.09,0,0,1,.69-.1,2.31,2.31,0,0,1,.55.06,1.64,1.64,0,0,1,.42.16,1.12,1.12,0,0,1,.31.25,1.36,1.36,0,0,1,.2.32,1.49,1.49,0,0,1,.11.36,2.33,2.33,0,0,1,0,.39V43.9h-.59V41.6a1.14,1.14,0,0,0-.05-.34.81.81,0,0,0-.49-.52,1.4,1.4,0,0,0-.49-.09,1.53,1.53,0,0,0-.31,0,1.18,1.18,0,0,0-.25.08,1,1,0,0,0-.2.12l-.14.14a.67.67,0,0,0-.09.14.36.36,0,0,0,0,.12.4.4,0,0,1,.11.1.65.65,0,0,1,.09.15.8.8,0,0,1,.05.18,1.28,1.28,0,0,1,0,.21v2Z"/><path d="M38.83,41.29a1.07,1.07,0,0,1,.05-.34,1.13,1.13,0,0,1,.14-.29,1,1,0,0,1,.21-.22,1.26,1.26,0,0,1,.27-.16,1.59,1.59,0,0,1,.3-.1,1.63,1.63,0,0,1,.33,0,1.6,1.6,0,0,1,.5.08,1.12,1.12,0,0,1,.4.22,1,1,0,0,1,.26.38,1.39,1.39,0,0,1,.09.54V43.9h-.59V41.48a1,1,0,0,0-.17-.64.61.61,0,0,0-.49-.2.62.62,0,0,0-.67.65Z"/><path d="M41.88,40.21h.65l.62,3h0l.65-3h.65l.65,3h0l.61-3h.65l-.93,3.69H44.8L44.15,41h0l-.65,2.94h-.66Z"/><path d="M46.71,42.76h.62a.75.75,0,0,0,.23.54.87.87,0,0,0,.58.17h.16l.16,0,.15-.06a.48.48,0,0,0,.13-.1.44.44,0,0,0,.09-.15.65.65,0,0,0,0-.21.47.47,0,0,0,0-.22.51.51,0,0,0-.15-.17,1.33,1.33,0,0,0-.26-.14L48,42.22l-.33-.13L47.42,42l-.24-.15a1,1,0,0,1-.19-.18.77.77,0,0,1-.12-.22.85.85,0,0,1,0-.28,1,1,0,0,1,0-.31.8.8,0,0,1,.13-.25.92.92,0,0,1,.2-.19,1.15,1.15,0,0,1,.25-.13l.28-.08.29,0a2.42,2.42,0,0,1,.52.05,1.08,1.08,0,0,1,.42.19.92.92,0,0,1,.28.35,1.39,1.39,0,0,1,.12.54h-.59A.93.93,0,0,0,48.7,41a.53.53,0,0,0-.15-.19.61.61,0,0,0-.21-.11,1,1,0,0,0-.26,0l-.22,0a.69.69,0,0,0-.21.08.48.48,0,0,0-.15.15.41.41,0,0,0-.06.23.38.38,0,0,0,.06.21.52.52,0,0,0,.16.15,1.52,1.52,0,0,0,.26.12l.35.13.42.17.31.17a1.23,1.23,0,0,1,.22.17.76.76,0,0,1,.14.19.8.8,0,0,1,.08.22,1.36,1.36,0,0,1,0,.26,1.1,1.1,0,0,1-.11.51.89.89,0,0,1-.29.33,1.22,1.22,0,0,1-.43.18,2.53,2.53,0,0,1-.54.05,2,2,0,0,1-.53-.07,1.19,1.19,0,0,1-.43-.21,1,1,0,0,1-.3-.38A1.39,1.39,0,0,1,46.71,42.76Z"/><path d="M49.81,41.28A1.67,1.67,0,0,1,49.9,41a1.36,1.36,0,0,1,.15-.27,1.34,1.34,0,0,1,.22-.24,1.39,1.39,0,0,1,.3-.19,1.66,1.66,0,0,1,.38-.13,2.52,2.52,0,0,1,1,0,1.58,1.58,0,0,1,.42.16,1.08,1.08,0,0,1,.3.25,1.31,1.31,0,0,1,.2.32,1.54,1.54,0,0,1,.1.36,2.44,2.44,0,0,1,0,.39V43.9h-.59V41.6a1.29,1.29,0,0,0,0-.34.79.79,0,0,0-.16-.31.84.84,0,0,0-.31-.22,1.33,1.33,0,0,0-.48-.09,1.61,1.61,0,0,0-.32,0,1.09,1.09,0,0,0-.25.09.92.92,0,0,0-.19.12.78.78,0,0,0-.13.14.61.61,0,0,0-.08.14.46.46,0,0,0,0,.12.42.42,0,0,1,.11.1.55.55,0,0,1,.08.14,1.17,1.17,0,0,1,.05.18,1.28,1.28,0,0,1,0,.21v1.53h.4v.46h-1v-2a1.52,1.52,0,0,0,0-.18.71.71,0,0,0,0-.17.65.65,0,0,0-.09-.15A.5.5,0,0,0,49.81,41.28Z"/><ellipse class="cls-3" cx="26.96" cy="31.74" rx="23.57" ry="1.7"/><path class="cls-4" d="M16.54,14.5a.86.86,0,0,0,0-.14v-1a.68.68,0,0,0-.67-.69h-2a.68.68,0,0,0-.67.69v1a.68.68,0,0,0,.67.69h3.18V14.5Z"/><path class="cls-4" d="M38.38,14.5a.8.8,0,0,1,0-.14v-1a.68.68,0,0,1,.67-.69h2a.68.68,0,0,1,.66.69v1a.68.68,0,0,1-.66.69H37.85V14.5Z"/><path class="cls-5" d="M16.54,15.53l.88-3.09c.49-1.71,1.09-4.25,4.12-4.25H33.41c3,0,3.63,2.55,4.12,4.25l.88,3.09Z"/><path class="cls-6" d="M12.2,24.07l.31,3.12c0,.63-.09,1.15.53,1.15H41.89c.61,0,.52-.51.52-1.15l.31-3.12Z"/><path class="cls-5" d="M42.34,20a1.74,1.74,0,0,0-.27-1.07h0a1,1,0,0,0-.24-.22l-3.41-3.19H16.54l-3.3,3.29a1.45,1.45,0,0,0-.28.28l0,0h0a2.28,2.28,0,0,0-.34,1.35l-.39,3.58H42.73Z"/><path class="cls-6" d="M17.66,15.83s-.23,5.67,1.16,5.67,2.71-.05,2.71-.05,0-4.22-1.94-4.92Z"/><path class="cls-6" d="M37.26,15.83s.23,5.67-1.16,5.67-2.71-.05-2.71-.05,0-4.22,1.94-4.92Z"/><path class="cls-7" d="M17.37,15.05l.49-2c.45-1.84.13-2.86,2.65-2.86H34.44c2.51,0,2.2,1,2.64,2.86l.49,2Z"/><path class="cls-8" d="M37.9,15.3H17l.57-2.36c.07-.3.13-.58.17-.84.25-1.33.41-2.22,2.72-2.22H34.44c2.31,0,2.47.88,2.72,2.22,0,.26.1.54.17.84Zm-20.2-.51H37.25l-.42-1.73c-.07-.31-.13-.6-.18-.86-.24-1.27-.34-1.8-2.22-1.8H20.51c-1.88,0-2,.53-2.22,1.8,0,.26-.1.55-.18.86Z"/><g class="cls-9"><path class="cls-10" d="M33.3,10.17a19.66,19.66,0,0,1,2.61.18,3.88,3.88,0,0,0-1.47-.21H20.51c-2.52,0-2.2,1-2.65,2.86l-.49,2h3A19.82,19.82,0,0,1,33.3,10.17Z"/></g><path class="cls-11" d="M16.49,31.74H14.3A1.21,1.21,0,0,1,13,30.6V28.33h4.72V30.6A1.21,1.21,0,0,1,16.49,31.74Z"/><path class="cls-11" d="M40.5,31.74H38.31A1.21,1.21,0,0,1,37,30.6V28.33h4.72V30.6A1.21,1.21,0,0,1,40.5,31.74Z"/><path class="cls-4" d="M13.39,25.29l-.11,1.62a.62.62,0,0,0,.62.68h2.82c.37,0,.57-.29.36-.6a6.43,6.43,0,0,0-3-2.15A.47.47,0,0,0,13.39,25.29Z"/><ellipse class="cls-12" cx="14.68" cy="26.5" rx="0.71" ry="0.73"/><path class="cls-4" d="M41.73,25.22l.11,1.62a.62.62,0,0,1-.62.68H38.41c-.37,0-.57-.3-.36-.61a6.46,6.46,0,0,1,3-2.15A.47.47,0,0,1,41.73,25.22Z"/><ellipse class="cls-12" cx="40.39" cy="26.45" rx="0.71" ry="0.73"/><path class="cls-4" d="M35.08,27.53H19.84a2.1,2.1,0,0,1-1.39-.65l-1.29-1.5c-.31-.36-.19-.65.27-.65H37.5c.46,0,.58.29.27.65l-1.29,1.5A2.09,2.09,0,0,1,35.08,27.53Z"/><path class="cls-4" d="M14.73,19.1s4.65.27,5.06,1.76-1.22,1.76-1.22,1.76S13.73,24,13.3,20.86C13,18.83,14.73,19.1,14.73,19.1Z"/><path class="cls-4" d="M40.26,19.1s-4.65.27-5.06,1.76,1.22,1.76,1.22,1.76,4.84,1.37,5.27-1.76C42,18.83,40.26,19.1,40.26,19.1Z"/><path class="cls-4" d="M35.91,22.38a59.61,59.61,0,0,1-16.82,0l.22-1.51a58.14,58.14,0,0,0,16.39,0Z"/><path class="cls-13" d="M16.35,22.33c-1.52,0-2.33-.51-2.47-1.55a1.86,1.86,0,0,1,0-.64s.15-.45.47-.45.11,0,.19,0h.13c1.48.09,3.82.5,4.43,1.14,0,0,.58.71-.62,1.22l-.09,0A8.65,8.65,0,0,1,16.35,22.33Z"/><path class="cls-13" d="M38.57,22.33c1.52,0,2.33-.51,2.47-1.55a1.88,1.88,0,0,0,0-.64s-.15-.45-.47-.45-.11,0-.19,0h-.13c-1.49.09-3.82.5-4.42,1.14,0,0-.58.71.62,1.22l.09,0A8.61,8.61,0,0,0,38.57,22.33Z"/><path class="cls-14" d="M29.43,11.21a.51.51,0,0,1-.51.51H26.13a.51.51,0,0,1-.51-.51h0a.51.51,0,0,1,.51-.51h2.79a.51.51,0,0,1,.51.51Z"/><rect class="cls-14" x="27.14" y="10.14" width="0.7" height="0.56"/><path class="cls-13" d="M32.36,27.11h-9.8c-1.14,0-1-.53-1-1.19s.78-1.19,1.75-1.19h8.35c1,0,1.75.53,1.75,1.19S33.5,27.11,32.36,27.11Z"/><rect class="cls-15" x="35.75" y="1.84" width="10.64" height="14.53" rx="0.65" ry="0.65"/><rect class="cls-13" x="36.45" y="2.98" width="9.25" height="12.63" rx="0.17" ry="0.17"/><path class="cls-16" d="M45.87,16.34H36.4a.61.61,0,0,1-.65-.56l0-13.29Z"/><path class="cls-17" d="M39.17,7.28H37V5.11h2.17ZM37.08,7.2h2v-2h-2Z"/><path class="cls-17" d="M39.17,10.55H37V8.38h2.17Zm-2.09-.08h2v-2h-2Z"/><path class="cls-17" d="M39.17,13.83H37V11.66h2.17Zm-2.09-.08h2v-2h-2Z"/><rect class="cls-18" x="40.32" y="5.28" width="4.47" height="0.22"/><rect class="cls-18" x="40.32" y="5.97" width="4.47" height="0.22"/><rect class="cls-18" x="40.32" y="6.65" width="4.47" height="0.22"/><rect class="cls-18" x="40.32" y="8.63" width="4.47" height="0.22"/><rect class="cls-18" x="40.32" y="9.32" width="4.47" height="0.22"/><rect class="cls-18" x="40.32" y="10" width="4.47" height="0.22"/><rect class="cls-18" x="40.32" y="11.78" width="4.47" height="0.22"/><rect class="cls-18" x="40.32" y="12.46" width="4.47" height="0.22"/><rect class="cls-18" x="40.32" y="13.15" width="4.47" height="0.22"/><polygon class="cls-19" points="39.52 4.84 37.97 5.98 37.55 5.56 37.16 5.82 37.95 6.45 39.78 4.91 39.52 4.84"/><polygon class="cls-20" points="37.24 5.72 37.52 5.53 37.94 5.96 39.5 4.81 39.62 4.84 37.92 6.26 37.24 5.72"/><path class="cls-20" d="M37.92,6.29l-.73-.57.32-.22.42.42L39.5,4.78l.17,0Zm-.65-.57.65.51,1.65-1.38-.06,0L37.93,6l-.42-.43Z"/><polygon class="cls-19" points="39.68 8.52 38.13 9.66 37.71 9.23 37.31 9.5 38.11 10.13 39.94 8.59 39.68 8.52"/><polygon class="cls-20" points="37.4 9.4 37.68 9.21 38.09 9.64 39.66 8.48 39.78 8.52 38.08 9.94 37.4 9.4"/><path class="cls-20" d="M38.08,10l-.73-.57.32-.22.42.42,1.56-1.15.17,0Zm-.65-.57.65.51,1.65-1.38-.06,0L38.09,9.67l-.42-.43Z"/><polygon class="cls-19" points="39.68 11.54 38.13 12.68 37.71 12.25 37.31 12.52 38.11 13.15 39.94 11.61 39.68 11.54"/><polygon class="cls-20" points="37.4 12.42 37.68 12.23 38.09 12.66 39.66 11.5 39.78 11.54 38.08 12.96 37.4 12.42"/><path class="cls-20" d="M38.08,13l-.73-.57.32-.22.42.42,1.56-1.15.17,0Zm-.65-.57.65.51,1.65-1.38-.06,0-1.57,1.16-.42-.43Z"/><path class="cls-21" d="M44,1.47H42.42V1.25A1.25,1.25,0,0,0,41.18,0h0A1.25,1.25,0,0,0,39.9,1.25v.23H38.32a.15.15,0,0,0-.15.15v1.6a.15.15,0,0,0,.15.15H44a.15.15,0,0,0,.15-.15V1.62A.15.15,0,0,0,44,1.47Zm-2.84-.15a.42.42,0,1,1,.42-.42A.42.42,0,0,1,41.16,1.33Z"/><rect class="cls-22" x="38.17" y="2.86" width="5.98" height="0.25"/><path class="cls-22" d="M44.13,3.28H38.21a0,0,0,0,1,0,0V3.17h6v.08A0,0,0,0,1,44.13,3.28Z"/></g></g></g></svg>