<svg xmlns="http://www.w3.org/2000/svg" viewBox="0 0 71.49 41.79"><defs><style>.cls-1{isolation:isolate;}.cls-2{font-size:8.73px;font-family:DBHelvethaicaX-55Regular, DB Helvethaica X;}.cls-13,.cls-2{stroke:#fff;stroke-miterlimit:10;}.cls-3{fill:#fff;}.cls-4{fill:#eec4a7;}.cls-5,.cls-9{fill:#8a8a8a;}.cls-5{opacity:0.2;}.cls-11,.cls-5,.cls-9{mix-blend-mode:multiply;}.cls-6{fill:#5e8c74;}.cls-7{fill:#dbdbdb;}.cls-8{fill:#f8eacb;}.cls-9{opacity:0.43;}.cls-10{fill:#11787f;}.cls-11{opacity:0.67;}.cls-12{fill:#878787;}.cls-13,.cls-14{font-size:13.32px;font-family:DBHelvethaicaX-75Bd, DB Helvethaica X;}.cls-13{fill:#ff27ad;}.cls-14{fill:#fc1f5e;}.cls-15{fill:#a0dada;}.cls-16{fill:#fea621;}.cls-17{fill:#f2f2f2;}</style></defs><title>insurance-04</title><g class="cls-1"><g id="Layer_2" data-name="Layer 2"><g id="Layer_1-2" data-name="Layer 1"><text class="cls-2" transform="translate(0.65 38.55)">มีค่าใช้จ่ายช่วยเหลือกรณีซ่อม</text><path d="M1,38.35V34.77h.58v2a1.45,1.45,0,0,0,.07.45,1,1,0,0,0,.2.36.94.94,0,0,0,.34.24,1.2,1.2,0,0,0,.47.08A.82.82,0,0,0,3,37.86a.66.66,0,0,0,.23-.15.65.65,0,0,0,.15-.23.81.81,0,0,0,.05-.29V34.77H4v2.35a2.3,2.3,0,0,1-.06.54,1.06,1.06,0,0,1-.2.42.91.91,0,0,1-.38.27,1.59,1.59,0,0,1-.59.1A1.42,1.42,0,0,1,2,38.27a1.21,1.21,0,0,1-.48-.5v.58Z"/><path d="M1,34.17l.23-.45H3.41v-.55H4v1Z"/><path d="M4.67,38.35V36.2a2.55,2.55,0,0,1,0-.38,1.68,1.68,0,0,1,.09-.36A1.21,1.21,0,0,1,5,35.15a1.09,1.09,0,0,1,.28-.25,1.41,1.41,0,0,1,.39-.16,2.08,2.08,0,0,1,.53-.06,2,2,0,0,1,.52.06,1.4,1.4,0,0,1,.39.16,1.11,1.11,0,0,1,.28.25,1.27,1.27,0,0,1,.18.31,1.63,1.63,0,0,1,.09.36,2.55,2.55,0,0,1,0,.38v2.15H7.08V36.13a1.31,1.31,0,0,0,0-.22A1.15,1.15,0,0,0,7,35.69a.77.77,0,0,0-.12-.2.74.74,0,0,0-.17-.16.86.86,0,0,0-.24-.11,1.06,1.06,0,0,0-.31,0,1.08,1.08,0,0,0-.31,0,.88.88,0,0,0-.24.11.74.74,0,0,0-.17.16,1,1,0,0,0-.12.2.94.94,0,0,0-.07.22,1.3,1.3,0,0,0,0,.22v.8a1.63,1.63,0,0,1,.22-.32,1,1,0,0,1,.26-.21A1.11,1.11,0,0,1,6,36.28a1.76,1.76,0,0,1,.38,0v.48a1.47,1.47,0,0,0-.54.09.91.91,0,0,0-.36.25,1,1,0,0,0-.21.4,2,2,0,0,0-.07.53v.36Z"/><path d="M7.11,34.18v-1.1h.56v1.1Z"/><path d="M8.13,35.81a1,1,0,0,1,.05-.33,1.08,1.08,0,0,1,.14-.28,1,1,0,0,1,.2-.22,1.2,1.2,0,0,1,.26-.16,1.44,1.44,0,0,1,.29-.09,1.52,1.52,0,0,1,.32,0,1.57,1.57,0,0,1,.49.07,1.08,1.08,0,0,1,.39.22,1,1,0,0,1,.26.37,1.34,1.34,0,0,1,.09.52v2.47H10V36a1,1,0,0,0-.16-.62.59.59,0,0,0-.48-.19.6.6,0,0,0-.65.63Z"/><path d="M10.78,34a1.08,1.08,0,0,1,.08-.43.85.85,0,0,1,.21-.3.88.88,0,0,1,.3-.18,1.08,1.08,0,0,1,.36-.06A1.3,1.3,0,0,1,12,33a.82.82,0,0,1,.27.12.59.59,0,0,1,.19.22.68.68,0,0,1,.07.31.48.48,0,0,1,0,.17.66.66,0,0,1-.07.14l-.11.14-.15.17a.46.46,0,0,0-.08.14.74.74,0,0,0,0,.16,1.19,1.19,0,0,0,0,.16c0,.05,0,.1,0,.15v3h.38v.45h-1V34.91c0-.1,0-.18,0-.25a1,1,0,0,1,0-.2.71.71,0,0,1,.09-.18,1.32,1.32,0,0,1,.16-.19l.09-.08.09-.09.07-.1a.19.19,0,0,0,0-.09.38.38,0,0,0,0-.1.21.21,0,0,0-.05-.09.27.27,0,0,0-.11-.06l-.17,0a.35.35,0,0,0-.31.14.65.65,0,0,0-.1.38Z"/><path d="M12.83,35.28v-.43l.18-.06.17,0,.15,0h.11a1.2,1.2,0,0,1,.34,0,.66.66,0,0,1,.25.14.53.53,0,0,1,.15.23.83.83,0,0,1,0,.32.9.9,0,0,1-.06.23,1.14,1.14,0,0,1-.1.2l-.14.2-.16.22a1,1,0,0,0-.09.17.75.75,0,0,0,0,.15.86.86,0,0,0,0,.15c0,.05,0,.12,0,.18v.19a.9.9,0,0,0,.06.33.74.74,0,0,0,.16.25.64.64,0,0,0,.23.15.74.74,0,0,0,.28.05.89.89,0,0,0,.26,0,.56.56,0,0,0,.22-.13.57.57,0,0,0,.14-.23.91.91,0,0,0,.06-.34v-.24a1.35,1.35,0,0,0,0-.27.54.54,0,0,0-.07-.18.34.34,0,0,0-.11-.11l-.14-.06-.18,0h-.21V35.8a.89.89,0,0,0,.35-.06.57.57,0,0,0,.23-.19.81.81,0,0,0,.13-.32,2.46,2.46,0,0,0,0-.47h.58a3.45,3.45,0,0,1,0,.43,1.2,1.2,0,0,1-.11.38.79.79,0,0,1-.63.45v0a1,1,0,0,1,.29.07.73.73,0,0,1,.21.13.61.61,0,0,1,.13.16.84.84,0,0,1,.08.19,1.12,1.12,0,0,1,0,.19c0,.06,0,.12,0,.17v.3a1.24,1.24,0,0,1-.11.53,1.1,1.1,0,0,1-.28.37,1.14,1.14,0,0,1-.4.22,1.58,1.58,0,0,1-.47.07,1.52,1.52,0,0,1-.48-.08,1.28,1.28,0,0,1-.41-.23,1.1,1.1,0,0,1-.29-.37,1.18,1.18,0,0,1-.11-.52v-.3c0-.09,0-.18,0-.24s0-.13,0-.18a.8.8,0,0,1,0-.14l.06-.13.09-.13.12-.15.1-.13.08-.11.05-.11a.42.42,0,0,0,0-.11.26.26,0,0,0-.28-.34h-.16l-.14,0-.12,0Z"/><path d="M13.67,33.63v-.41h.82v.49a1.4,1.4,0,0,0,.34,0,.89.89,0,0,0,.26-.1.46.46,0,0,0,.16-.16.37.37,0,0,0,.06-.2h.54a.77.77,0,0,1-.09.35.9.9,0,0,1-.26.3,1.34,1.34,0,0,1-.43.21,2.14,2.14,0,0,1-.61.08H14v-.53Z"/><path d="M16.14,35.81a1.23,1.23,0,0,1,.46-.8,1.38,1.38,0,0,1,.45-.23,2,2,0,0,1,.58-.08l.32,0a1.58,1.58,0,0,1,.31.08,1.25,1.25,0,0,1,.28.15.91.91,0,0,1,.23.23,1.12,1.12,0,0,1,.15.32,1.43,1.43,0,0,1,.05.43,1.59,1.59,0,0,1,0,.33c0,.12-.06.25-.1.39s-.09.28-.14.43l-.17.45-.18.43-.17.39h-.8L16.8,36.7h-.46v-.45h.92l.52,1.58.12-.28.13-.32.13-.33c0-.11.08-.22.11-.33a2.74,2.74,0,0,0,.07-.31,1.21,1.21,0,0,0,0-.28.78.78,0,0,0-.19-.6.83.83,0,0,0-.61-.2.79.79,0,0,0-.52.16.82.82,0,0,0-.26.47Z"/><path d="M18.38,34.18v-1.1h.56v1.1Z"/><path d="M19.4,35.81a1,1,0,0,1,.05-.33,1.08,1.08,0,0,1,.14-.28,1,1,0,0,1,.2-.22,1.2,1.2,0,0,1,.26-.16,1.44,1.44,0,0,1,.29-.09,1.52,1.52,0,0,1,.32,0,1.57,1.57,0,0,1,.49.07,1.08,1.08,0,0,1,.39.22,1,1,0,0,1,.26.37,1.34,1.34,0,0,1,.09.52v2.47H21.3V36a1,1,0,0,0-.16-.62.59.59,0,0,0-.48-.19.6.6,0,0,0-.65.63Z"/><path d="M22.52,37.25a1.59,1.59,0,0,1,0-.28.8.8,0,0,1,.08-.24.63.63,0,0,1,.15-.19A.74.74,0,0,1,23,36.4a.71.71,0,0,1-.25-.15.71.71,0,0,1-.21-.42,1.67,1.67,0,0,1,0-.22.9.9,0,0,1,0-.29.72.72,0,0,1,.28-.37.9.9,0,0,1,.2-.1l.22-.05.21,0H24v.48h-.46a.45.45,0,0,0-.16,0,.38.38,0,0,0-.14.11.36.36,0,0,0-.06.22.67.67,0,0,0,0,.25.36.36,0,0,0,.11.15.42.42,0,0,0,.17.08l.21,0H24v.48h-.28l-.22,0a.36.36,0,0,0-.17.08.39.39,0,0,0-.11.17.9.9,0,0,0,0,.3.65.65,0,0,0,.07.31.67.67,0,0,0,.19.22.84.84,0,0,0,.28.13,1.19,1.19,0,0,0,.33,0,1.14,1.14,0,0,0,.35-.05.67.67,0,0,0,.28-.16.74.74,0,0,0,.18-.29,1.33,1.33,0,0,0,.06-.44v-2.2h.58v2.33a1.36,1.36,0,0,1-.11.57,1.18,1.18,0,0,1-.31.42,1.36,1.36,0,0,1-.46.25,1.78,1.78,0,0,1-.56.09,2.29,2.29,0,0,1-.37,0,1.66,1.66,0,0,1-.35-.09,1.55,1.55,0,0,1-.31-.16,1.09,1.09,0,0,1-.25-.23,1,1,0,0,1-.16-.3A1.11,1.11,0,0,1,22.52,37.25Z"/><path d="M26,35.28v-.43l.18-.06.17,0,.15,0h.11a1.2,1.2,0,0,1,.34,0,.66.66,0,0,1,.25.14.53.53,0,0,1,.15.23.83.83,0,0,1,0,.32.9.9,0,0,1-.06.23,1.14,1.14,0,0,1-.1.2l-.14.2-.16.22a1,1,0,0,0-.09.17.75.75,0,0,0,0,.15.86.86,0,0,0,0,.15c0,.05,0,.12,0,.18v.19a.9.9,0,0,0,.06.33.74.74,0,0,0,.16.25.64.64,0,0,0,.23.15.74.74,0,0,0,.28.05.89.89,0,0,0,.26,0,.56.56,0,0,0,.22-.13.57.57,0,0,0,.14-.23.91.91,0,0,0,.06-.34v-.24a1.35,1.35,0,0,0,0-.27.54.54,0,0,0-.07-.18.34.34,0,0,0-.11-.11l-.14-.06-.18,0h-.21V35.8a.89.89,0,0,0,.35-.06.57.57,0,0,0,.23-.19.81.81,0,0,0,.13-.32,2.46,2.46,0,0,0,0-.47h.58a3.45,3.45,0,0,1,0,.43,1.2,1.2,0,0,1-.11.38A.79.79,0,0,1,28,36v0a1,1,0,0,1,.29.07.73.73,0,0,1,.21.13.61.61,0,0,1,.13.16.84.84,0,0,1,.08.19,1.12,1.12,0,0,1,0,.19c0,.06,0,.12,0,.17v.3a1.24,1.24,0,0,1-.11.53,1.1,1.1,0,0,1-.28.37,1.14,1.14,0,0,1-.4.22,1.58,1.58,0,0,1-.47.07,1.52,1.52,0,0,1-.48-.08,1.28,1.28,0,0,1-.41-.23,1.1,1.1,0,0,1-.29-.37,1.18,1.18,0,0,1-.11-.52v-.3c0-.09,0-.18,0-.24s0-.13,0-.18a.8.8,0,0,1,0-.14l.06-.13.09-.13.12-.15.1-.13.08-.11.05-.11a.42.42,0,0,0,0-.11.26.26,0,0,0-.28-.34h-.16l-.14,0-.12,0Z"/><path d="M28.15,34.18v-1.1h.56v1.1Z"/><path d="M29.3,37.13h.6a1.1,1.1,0,0,0,.07.36.8.8,0,0,0,.16.25.64.64,0,0,0,.23.15.79.79,0,0,0,.63,0,.68.68,0,0,0,.26-.25,1.38,1.38,0,0,0,.16-.43,3.35,3.35,0,0,0,0-1.24,1.39,1.39,0,0,0-.16-.43.72.72,0,0,0-.26-.26.7.7,0,0,0-.35-.09.75.75,0,0,0-.28.05.64.64,0,0,0-.23.15.77.77,0,0,0-.16.26,1.25,1.25,0,0,0-.08.36h-.6a1.49,1.49,0,0,1,.11-.52,1.19,1.19,0,0,1,.27-.41,1.28,1.28,0,0,1,.42-.27,1.55,1.55,0,0,1,1.18,0,1.24,1.24,0,0,1,.45.38,1.65,1.65,0,0,1,.26.59,3.46,3.46,0,0,1,0,1.53,1.65,1.65,0,0,1-.26.59,1.2,1.2,0,0,1-.45.38,1.45,1.45,0,0,1-.64.13,1.47,1.47,0,0,1-.54-.09,1.19,1.19,0,0,1-.42-.27,1.25,1.25,0,0,1-.27-.41A1.48,1.48,0,0,1,29.3,37.13Z"/><path d="M32.6,37.25a1.59,1.59,0,0,1,0-.28.8.8,0,0,1,.08-.24.63.63,0,0,1,.15-.19.74.74,0,0,1,.23-.13.71.71,0,0,1-.25-.15.71.71,0,0,1-.21-.42,1.67,1.67,0,0,1,0-.22.9.9,0,0,1,0-.29.72.72,0,0,1,.28-.37.9.9,0,0,1,.2-.1l.22-.05.21,0H34v.48h-.46a.45.45,0,0,0-.16,0,.38.38,0,0,0-.14.11.36.36,0,0,0-.06.22.67.67,0,0,0,0,.25.36.36,0,0,0,.11.15.42.42,0,0,0,.17.08l.21,0H34v.48h-.28l-.22,0a.36.36,0,0,0-.17.08.39.39,0,0,0-.11.17.9.9,0,0,0,0,.3.65.65,0,0,0,.07.31.67.67,0,0,0,.19.22.84.84,0,0,0,.28.13,1.19,1.19,0,0,0,.33,0,1.14,1.14,0,0,0,.35-.05.67.67,0,0,0,.28-.16.74.74,0,0,0,.18-.29A1.33,1.33,0,0,0,35,37v-2.2h.58v2.33a1.36,1.36,0,0,1-.11.57,1.18,1.18,0,0,1-.31.42,1.36,1.36,0,0,1-.46.25,1.78,1.78,0,0,1-.56.09,2.29,2.29,0,0,1-.37,0,1.66,1.66,0,0,1-.35-.09,1.55,1.55,0,0,1-.31-.16,1.09,1.09,0,0,1-.25-.23,1,1,0,0,1-.16-.3A1.11,1.11,0,0,1,32.6,37.25Z"/><path d="M36.31,38.35V34.77h.6v3.58Z"/><path d="M37.68,38.35V34.77h.58v1.4l1.62-1.4h.85l-.83.7a.82.82,0,0,1,.33.18.87.87,0,0,1,.2.28,1.32,1.32,0,0,1,.1.36,3,3,0,0,1,0,.43v1.63H40V36.64a1.25,1.25,0,0,0,0-.28.7.7,0,0,0-.1-.24.65.65,0,0,0-.17-.18.59.59,0,0,0-.24-.1l-1.2,1v1.47Z"/><path d="M41.17,37.45a1.27,1.27,0,0,1,0-.36.92.92,0,0,1,.13-.27.84.84,0,0,1,.2-.19,1.16,1.16,0,0,1,.25-.13l.28-.08.3-.06a1.27,1.27,0,0,1,.27-.06l.27,0,.25,0a.89.89,0,0,0,.22-.08.39.39,0,0,0,.14-.13.34.34,0,0,0,.05-.19.75.75,0,0,0,0-.23.5.5,0,0,0-.09-.17.45.45,0,0,0-.13-.11l-.16-.06-.18,0h-.19a1.63,1.63,0,0,0-.35,0,.74.74,0,0,0-.27.12.57.57,0,0,0-.18.22.83.83,0,0,0-.08.33h-.6a1.39,1.39,0,0,1,.07-.4,1.05,1.05,0,0,1,.16-.31,1,1,0,0,1,.24-.22,1.4,1.4,0,0,1,.3-.15,1.79,1.79,0,0,1,.36-.08l.39,0,.32,0,.31.07a1.26,1.26,0,0,1,.28.12.84.84,0,0,1,.22.19.88.88,0,0,1,.15.27,1.12,1.12,0,0,1,.06.37v2.61h-.58V36.51a.6.6,0,0,1-.22.09l-.27,0-.3,0-.3.05-.27.08a.81.81,0,0,0-.23.12.54.54,0,0,0-.16.19.59.59,0,0,0-.06.28.53.53,0,0,0,.06.27.51.51,0,0,0,.17.17.71.71,0,0,0,.23.09l.25,0h.19l.16,0v.43l-.24.05-.25,0a2,2,0,0,1-.45-.05,1,1,0,0,1-.37-.17.82.82,0,0,1-.26-.3A1,1,0,0,1,41.17,37.45Z"/><path d="M41.17,34.17l.23-.45h1.26v-.55h.54v.55h.39v-.55h.54v1Z"/><path d="M44.72,36.57v-.2h1.55v.45h-1a1.45,1.45,0,0,0,.07.46,1.06,1.06,0,0,0,.19.36.87.87,0,0,0,.3.23.9.9,0,0,0,.39.08.83.83,0,0,0,.71-.36,1.32,1.32,0,0,0,.19-.43,2.29,2.29,0,0,0,.07-.58,2.56,2.56,0,0,0-.06-.59,1.29,1.29,0,0,0-.18-.43.8.8,0,0,0-.3-.27.94.94,0,0,0-.42-.09,1.14,1.14,0,0,0-.34.05.93.93,0,0,0-.28.14.75.75,0,0,0-.2.22.78.78,0,0,0-.1.28h-.6a1.66,1.66,0,0,1,.17-.48,1.29,1.29,0,0,1,.31-.38,1.37,1.37,0,0,1,.45-.25,1.89,1.89,0,0,1,.6-.09,1.66,1.66,0,0,1,.73.15,1.3,1.3,0,0,1,.49.4,1.6,1.6,0,0,1,.27.6,3.2,3.2,0,0,1,.08.74,3.12,3.12,0,0,1,0,.48,2.21,2.21,0,0,1-.12.44,1.61,1.61,0,0,1-.2.38,1.29,1.29,0,0,1-.3.29,1.38,1.38,0,0,1-.4.19,1.92,1.92,0,0,1-1,0,1.36,1.36,0,0,1-.4-.19,1.21,1.21,0,0,1-.29-.29,1.7,1.7,0,0,1-.2-.38,2.26,2.26,0,0,1-.11-.44A3.31,3.31,0,0,1,44.72,36.57Z"/><path d="M48.14,35.81a1.53,1.53,0,0,1,.16-.41,1.24,1.24,0,0,1,.31-.36,1.58,1.58,0,0,1,.48-.26,2,2,0,0,1,.66-.1,2.24,2.24,0,0,1,.54.06,1.58,1.58,0,0,1,.41.16,1.12,1.12,0,0,1,.3.24,1.27,1.27,0,0,1,.2.31,1.52,1.52,0,0,1,.11.35,2.12,2.12,0,0,1,0,.38v2.17h-.58V36.12a1.17,1.17,0,0,0,0-.33.76.76,0,0,0-.17-.3.88.88,0,0,0-.31-.22,1.24,1.24,0,0,0-.47-.09,1.44,1.44,0,0,0-.3,0,1.15,1.15,0,0,0-.25.08.94.94,0,0,0-.19.12l-.14.14a.61.61,0,0,0-.08.14.55.55,0,0,0,0,.12.41.41,0,0,1,.11.1.53.53,0,0,1,.08.14,1.06,1.06,0,0,1,.05.17,1.2,1.2,0,0,1,0,.2v1.93h-.58V36.41a1.43,1.43,0,0,0,0-.17.68.68,0,0,0,0-.16.61.61,0,0,0-.09-.15A.48.48,0,0,0,48.14,35.81Z"/><path d="M51.87,37.24h.6a.73.73,0,0,0,.22.53.85.85,0,0,0,.57.17h.15l.16,0,.15-.06a.48.48,0,0,0,.13-.1.44.44,0,0,0,.09-.15.64.64,0,0,0,0-.2.45.45,0,0,0,0-.22.49.49,0,0,0-.15-.16,1.28,1.28,0,0,0-.25-.14l-.35-.15-.32-.13-.28-.13-.23-.15a1,1,0,0,1-.18-.17.72.72,0,0,1-.12-.22.82.82,0,0,1,0-.27,1,1,0,0,1,0-.3.79.79,0,0,1,.13-.24.9.9,0,0,1,.2-.19,1.13,1.13,0,0,1,.24-.13l.27-.08.28,0a2.33,2.33,0,0,1,.51.05,1,1,0,0,1,.4.18.88.88,0,0,1,.27.34,1.34,1.34,0,0,1,.11.52h-.58a.92.92,0,0,0-.07-.28.51.51,0,0,0-.14-.19.57.57,0,0,0-.2-.1.92.92,0,0,0-.25,0l-.21,0a.67.67,0,0,0-.2.08.46.46,0,0,0-.15.15.4.4,0,0,0-.06.22.37.37,0,0,0,.05.21.52.52,0,0,0,.16.14,1.44,1.44,0,0,0,.25.12l.34.12.41.17.31.16a1.28,1.28,0,0,1,.21.17.74.74,0,0,1,.14.18.77.77,0,0,1,.07.21,1.36,1.36,0,0,1,0,.25,1.07,1.07,0,0,1-.1.49.85.85,0,0,1-.28.33,1.2,1.2,0,0,1-.42.18,2.45,2.45,0,0,1-.52.05,2,2,0,0,1-.51-.06,1.2,1.2,0,0,1-.42-.2,1,1,0,0,1-.29-.37A1.34,1.34,0,0,1,51.87,37.24Z"/><path d="M54.88,35.81A1.53,1.53,0,0,1,55,35.4a1.31,1.31,0,0,1,.3-.36,1.49,1.49,0,0,1,.46-.26,1.8,1.8,0,0,1,.62-.1,2,2,0,0,1,.52.06,1.57,1.57,0,0,1,.39.16,1.13,1.13,0,0,1,.29.24,1.22,1.22,0,0,1,.19.31,1.66,1.66,0,0,1,.1.35,2,2,0,0,1,0,.38v1a1.29,1.29,0,0,0,0,.34.59.59,0,0,0,.11.22.41.41,0,0,0,.18.12.68.68,0,0,0,.23,0,.77.77,0,0,0,.65-.32,1.15,1.15,0,0,0,.17-.36,1.63,1.63,0,0,0,.06-.45v-2H60v3.58h-.54l0-.58a1.41,1.41,0,0,1-.17.25,1.29,1.29,0,0,1-.22.21,1,1,0,0,1-.27.14.92.92,0,0,1-.32.05,1.34,1.34,0,0,1-.52-.09.8.8,0,0,1-.33-.26,1,1,0,0,1-.18-.41,2.75,2.75,0,0,1-.05-.56v-1a1.2,1.2,0,0,0,0-.33.82.82,0,0,0-.15-.3.77.77,0,0,0-.29-.21,1.16,1.16,0,0,0-.44-.09,1.24,1.24,0,0,0-.39.06,1,1,0,0,0-.29.14.69.69,0,0,0-.18.2.57.57,0,0,0-.08.22.4.4,0,0,1,.11.1.53.53,0,0,1,.08.14,1,1,0,0,1,.05.17,1.2,1.2,0,0,1,0,.2V37.9h.39v.45h-1V36.41a1.43,1.43,0,0,0,0-.17.68.68,0,0,0,0-.16.61.61,0,0,0-.09-.15A.48.48,0,0,0,54.88,35.81Z"/><path d="M57,34.17l.23-.45H59.4v-.55H60v1Z"/><path d="M60.39,34.77h.54a.52.52,0,0,0,0,.14A.36.36,0,0,0,61,35a.3.3,0,0,0,.1.08.29.29,0,0,0,.13,0l.14,0a.25.25,0,0,0,.1-.08.44.44,0,0,0,.07-.12.49.49,0,0,0,0-.15h.55v.7a.58.58,0,0,1,0,.21.69.69,0,0,1-.11.18l-.15.16-.18.18a.87.87,0,0,0-.14.21,1.12,1.12,0,0,0-.08.24,1.69,1.69,0,0,0,0,.25c0,.08,0,.17,0,.24a1,1,0,0,0,.05.33.72.72,0,0,0,.15.25.62.62,0,0,0,.22.15.7.7,0,0,0,.27.05.91.91,0,0,0,.27,0,.54.54,0,0,0,.22-.13.62.62,0,0,0,.15-.23.91.91,0,0,0,.06-.34v-.24a1,1,0,0,0,0-.35.44.44,0,0,0-.13-.19.41.41,0,0,0-.2-.09l-.26,0V35.8a.83.83,0,0,0,.33-.08.59.59,0,0,0,.22-.2.85.85,0,0,0,.12-.32,2.36,2.36,0,0,0,0-.44h.58a2.94,2.94,0,0,1,0,.42,1.2,1.2,0,0,1-.12.38.83.83,0,0,1-.25.29.93.93,0,0,1-.42.16v0a1,1,0,0,1,.29.07.69.69,0,0,1,.21.13.64.64,0,0,1,.13.16.81.81,0,0,1,.08.19,1.12,1.12,0,0,1,0,.19c0,.06,0,.12,0,.17v.3a1.39,1.39,0,0,1,0,.37,1.11,1.11,0,0,1-.13.3,1,1,0,0,1-.21.23,1.17,1.17,0,0,1-.26.16,1.32,1.32,0,0,1-.3.09,1.67,1.67,0,0,1-.32,0,1.52,1.52,0,0,1-.48-.08,1.23,1.23,0,0,1-.41-.23,1.14,1.14,0,0,1-.29-.37,1.16,1.16,0,0,1-.11-.52c0-.15,0-.28,0-.39a1.79,1.79,0,0,1,0-.32.88.88,0,0,1,.11-.27.93.93,0,0,1,.23-.23l.08-.06.1-.08.1-.09.08-.12a.5.5,0,0,0,.05-.14.43.43,0,0,0,0-.16h0a.18.18,0,0,1-.06.08l-.1.06-.12,0-.15,0H61l-.16,0-.16-.09a.58.58,0,0,1-.14-.15.78.78,0,0,1-.1-.22A1.05,1.05,0,0,1,60.39,34.77Z"/><path d="M62.75,34.18v-1.1h.56v1.1Z"/><path d="M63.88,36.57v-.2h1.55v.45h-1a1.45,1.45,0,0,0,.07.46,1.06,1.06,0,0,0,.19.36.87.87,0,0,0,.3.23.9.9,0,0,0,.39.08.83.83,0,0,0,.71-.36,1.32,1.32,0,0,0,.19-.43,2.29,2.29,0,0,0,.07-.58,2.56,2.56,0,0,0-.06-.59,1.29,1.29,0,0,0-.18-.43.8.8,0,0,0-.3-.27.94.94,0,0,0-.42-.09,1.14,1.14,0,0,0-.34.05.93.93,0,0,0-.28.14.75.75,0,0,0-.2.22.78.78,0,0,0-.1.28h-.6a1.66,1.66,0,0,1,.17-.48,1.29,1.29,0,0,1,.31-.38,1.37,1.37,0,0,1,.45-.25,1.89,1.89,0,0,1,.6-.09,1.66,1.66,0,0,1,.73.15,1.3,1.3,0,0,1,.49.4,1.6,1.6,0,0,1,.27.6,3.2,3.2,0,0,1,.08.74,3.12,3.12,0,0,1,0,.48,2.21,2.21,0,0,1-.12.44,1.61,1.61,0,0,1-.2.38,1.29,1.29,0,0,1-.3.29,1.38,1.38,0,0,1-.4.19,1.92,1.92,0,0,1-1,0,1.36,1.36,0,0,1-.4-.19,1.21,1.21,0,0,1-.29-.29,1.7,1.7,0,0,1-.2-.38,2.26,2.26,0,0,1-.11-.44A3.31,3.31,0,0,1,63.88,36.57Z"/><path d="M67.53,38.35V34.77h.58v2a1.45,1.45,0,0,0,.07.45,1,1,0,0,0,.2.36.94.94,0,0,0,.34.24,1.2,1.2,0,0,0,.47.08.82.82,0,0,0,.31-.05.66.66,0,0,0,.23-.15.65.65,0,0,0,.15-.23.81.81,0,0,0,.05-.29V34.77h.58v2.35a2.3,2.3,0,0,1-.06.54,1.06,1.06,0,0,1-.2.42.91.91,0,0,1-.38.27,1.59,1.59,0,0,1-.59.1,1.42,1.42,0,0,1-.69-.16,1.21,1.21,0,0,1-.48-.5v.58Z"/><rect class="cls-3" x="54.83" y="12.11" width="3.71" height="11.79"/><path class="cls-4" d="M46.44,9.78a18.49,18.49,0,0,0-4-1.17L36,8.45h-.46l-.17,0-.17,0L35,8.58h0l-.09,0-.06,0a1.79,1.79,0,0,0-.31.21l-.38.39-.73.76,2.87,2.84,1.9,1.89h1v0L40.07,16l.41.38L41.3,21h0l.36,0,1.12.09,2,.16,10,.83v-8.7Z"/><path class="cls-5" d="M54.83,13.36v8.7l-4-.33A6.28,6.28,0,0,0,52,19.95a20.41,20.41,0,0,0,1.42-7.17Z"/><path class="cls-6" d="M30.56,28.69l-.54.08C29.8,19.5,26.28,11.2,26,1.93l.54-.08C26.82,11.12,30.34,19.42,30.56,28.69Z"/><path class="cls-7" d="M41.42,27.08l-10.85,1.6c-.23-9.27-3.75-17.57-4-26.84L37.44.24A17.58,17.58,0,0,0,37.56,6a32.06,32.06,0,0,0,.83,4c.27,1,.42,1.56.73,2.6h0l.65,2.2a39.78,39.78,0,0,1,1.58,6.8A17.34,17.34,0,0,1,41.42,27.08Z"/><path class="cls-6" d="M32.12,6.74a1.5,1.5,0,0,1,1.69,1.2,1.35,1.35,0,0,1-1.14,1.62,1.55,1.55,0,0,1-1.74-1.19A1.39,1.39,0,0,1,32.12,6.74Z"/><path class="cls-6" d="M35.41,19.66a1.54,1.54,0,0,1,1.73,1.19,1.41,1.41,0,0,1-1.22,1.63,1.48,1.48,0,0,1-1.67-1.2A1.36,1.36,0,0,1,35.41,19.66Z"/><path class="cls-6" d="M27.25,2.83c-.21,8.53,4.39,16.08,4.19,24.61l.12.1,9.05-1.34.14-.15c.19-8.53-4.41-16.07-4.19-24.6l-.13-.11L27.39,2.69Zm6.65-.07a1.23,1.23,0,0,0,1.52,1.16c.63,6.87,3.57,13.14,4.22,20a1.72,1.72,0,0,0-1.47,1.6l-4.07.6A1.23,1.23,0,0,0,32.58,25C31.93,18.1,29,11.83,28.36,5a1.72,1.72,0,0,0,1.48-1.6Z"/><path class="cls-6" d="M37.1,14.24a3.62,3.62,0,0,0-3.88-2.52A2.61,2.61,0,0,0,31,15.14a3.61,3.61,0,0,0,3.88,2.52A2.62,2.62,0,0,0,37.1,14.24Zm-4.17,1.54a1.16,1.16,0,0,1-.38-.43l-.08-.17-.35.06-.15-.5.37-.05a1,1,0,0,1,0-.4.8.8,0,0,1,.23-.4,1,1,0,0,1,.44-.22l.23.64a.57.57,0,0,0-.38.28.39.39,0,0,0,0,.3.56.56,0,0,0,.27.33.38.38,0,0,0,.25,0,.49.49,0,0,0,.35-.32l.26-.68a1.75,1.75,0,0,1,.3-.55.75.75,0,0,1,.44-.23.92.92,0,0,1,.83.31,1.25,1.25,0,0,1,.24.37l.36-.05.14.5-.35.06a1.23,1.23,0,0,1,0,.39.71.71,0,0,1-.53.58L35.16,15a.45.45,0,0,0,.28-.21.38.38,0,0,0,0-.28.42.42,0,0,0-.21-.27.45.45,0,0,0-.28,0,.57.57,0,0,0-.4.34,2.15,2.15,0,0,0-.13.34c-.05.17-.09.29-.12.35a1.56,1.56,0,0,1-.27.45l-.13.13a.65.65,0,0,1-.3.15A1,1,0,0,1,32.92,15.79Z"/><path class="cls-6" d="M31.46,29.21l-.52.17c-1.8-9.1-6.67-16.68-8.47-25.78L23,3.43C24.78,12.52,29.66,20.11,31.46,29.21Z"/><path class="cls-3" d="M41.89,25.78,31.46,29.2C29.66,20.1,24.78,12.52,23,3.43L33.41,0a17.59,17.59,0,0,0,1.1,5.7A31.78,31.78,0,0,0,36,9.45c.44,1,.68,1.47,1.16,2.44h0l1,2.06a39.66,39.66,0,0,1,2.71,6.43A17.43,17.43,0,0,1,41.89,25.78Z"/><path class="cls-6" d="M29.27,7.31a1.5,1.5,0,0,1,1.86.9A1.35,1.35,0,0,1,30.28,10a1.55,1.55,0,0,1-1.92-.88A1.4,1.4,0,0,1,29.27,7.31Z"/><path class="cls-6" d="M34.71,19.49a1.54,1.54,0,0,1,1.91.88,1.42,1.42,0,0,1-.92,1.81,1.48,1.48,0,0,1-1.85-.9A1.36,1.36,0,0,1,34.71,19.49Z"/><path class="cls-6" d="M23.81,4.29c1.24,8.44,7.05,15.1,8.31,23.54l.14.08L40.94,25l.12-.17C39.8,16.44,34,9.79,32.75,1.35l-.14-.08L23.92,4.12Zm6.55-1.2A1.23,1.23,0,0,0,32,4c1.79,6.66,5.75,12.34,7.55,19a1.72,1.72,0,0,0-1.18,1.83l-3.91,1.29a1.23,1.23,0,0,0-1.7-.89c-1.8-6.66-5.76-12.34-7.55-19a1.72,1.72,0,0,0,1.18-1.83Z"/><path class="cls-6" d="M35.45,13.86A3.63,3.63,0,0,0,31.19,12a2.62,2.62,0,0,0-1.56,3.74,3.62,3.62,0,0,0,4.25,1.83A2.62,2.62,0,0,0,35.45,13.86Zm-3.85,2.23a1.18,1.18,0,0,1-.45-.36L31,15.57l-.33.11-.23-.47.35-.11a1.06,1.06,0,0,1,0-.4.79.79,0,0,1,.16-.43,1,1,0,0,1,.4-.29l.34.6a.57.57,0,0,0-.32.34.39.39,0,0,0,0,.3.56.56,0,0,0,.33.28.37.37,0,0,0,.25,0,.49.49,0,0,0,.29-.37l.14-.71a1.74,1.74,0,0,1,.2-.59.74.74,0,0,1,.39-.3.92.92,0,0,1,.88.16,1.23,1.23,0,0,1,.3.32l.34-.11.23.46-.34.11a1.24,1.24,0,0,1,.07.39.71.71,0,0,1-.11.39.73.73,0,0,1-.31.27l-.39-.59a.44.44,0,0,0,.24-.25.38.38,0,0,0,0-.28.43.43,0,0,0-.25-.23.45.45,0,0,0-.28,0,.57.57,0,0,0-.34.4,2,2,0,0,0-.07.36c0,.18,0,.31-.06.36a1.56,1.56,0,0,1-.19.49,1.23,1.23,0,0,1-.11.15.66.66,0,0,1-.27.2A1,1,0,0,1,31.59,16.09Z"/><path class="cls-4" d="M41.3,21H41l-1.46-.08-.29,0L36,20.68l-2.42-.13c-.87,0-.61-.05-1.47-.05a4.53,4.53,0,0,1-3.34-1.05,1.66,1.66,0,0,1,.29-2.53l.06,0A6.3,6.3,0,0,1,32,16.43c.46,0,.79,0,1.22,0h.52l5.44-.11h.62l.62,0Z"/><path class="cls-8" d="M31.68,19.15c-.06.34-.17.4-.6.4-.76,0-1.86-.12-2.15-.89a2.4,2.4,0,0,1-.09-.41c-.1-.8.53-1.25,1.61-1.45a2.86,2.86,0,0,1,.94-.08.43.43,0,0,1,.23.17,1.49,1.49,0,0,0-.86.77A1.29,1.29,0,0,0,31.68,19.15Z"/><path class="cls-9" d="M40.48,16.33,40.11,16c-.1-.37-.22-.77-.35-1.2l-.65-2.2h0c-.3-1-.45-1.56-.72-2.6-.15-.58-.27-1-.37-1.49l1.73,0A35,35,0,0,0,40.48,16.33Z"/><rect class="cls-10" x="58.21" y="11.11" width="7.01" height="13.78"/><g class="cls-11"><path class="cls-12" d="M40.21,16.34h-1l-.83,0h-.21l-1,0h-.31l-1.47,0-1.6,0h-.52c-.43,0-.76,0-1.22,0h-.28c-.3,0-.6,0-.89,0a7.15,7.15,0,0,0-.71.08l-.41.08-.25.07a1.18,1.18,0,0,0-.36.18l-.06,0L29,17h0l0,0,0-.09h0a1.94,1.94,0,0,1,.38-.65,1.81,1.81,0,0,1,.27-.27l.13-.1a3.45,3.45,0,0,1,.88-.46h0a4.07,4.07,0,0,1,.5-.15l.31-.06a4.46,4.46,0,0,1,.68-.08h1l.39,0,.38,0,.42,0h.06l1,.07.42,0h.1l.9.06.46,0,.76,0h0c.3,0,.6,0,.91,0l.21,0,.82-.08.18.63C40.15,16.11,40.18,16.22,40.21,16.34Z"/></g><text class="cls-13" transform="translate(21.33 12.78)">+</text><text class="cls-14" transform="translate(21.33 12.78)">+</text><path class="cls-15" d="M24.26,19.77a2.64,2.64,0,0,0-2.85-1.06l-2-2-.41.41,1.31,1.31a.48.48,0,1,1-.68.68l-1.31-1.32-.41.42L19.73,20a2.64,2.64,0,0,0,2.54,3.86l-1.2-1.74a.52.52,0,0,1,.14-.73l1.32-.91a.53.53,0,0,1,.73.13l1.19,1.74A2.64,2.64,0,0,0,24.26,19.77ZM16,14.29a.47.47,0,0,1,.34.14l1.47,1.47.41-.41-1.9-1.9a2.64,2.64,0,0,0-2.6-3.81L14.9,11.5a.53.53,0,0,1-.13.73l-1.31.92a.52.52,0,0,1-.73-.13l-1.22-1.73a2.64,2.64,0,0,0,3.13,3.65l2,2,.41-.41-1.47-1.47a.48.48,0,0,1,0-.68A.47.47,0,0,1,16,14.29Z"/><rect class="cls-16" x="16.34" y="17.03" width="0.57" height="2.55" rx="0.23" ry="0.23" transform="translate(-8.08 17.12) rotate(-45)"/><path class="cls-16" d="M16.83,19.58,13.6,23.1l-.4.43a1.23,1.23,0,0,1-.42.28,1.15,1.15,0,0,1-.36.09H12.3a1.26,1.26,0,0,1-.9-.37,1.27,1.27,0,0,1,0-1.8l.43-.4,3.52-3.23Z"/><path class="cls-17" d="M23.45,12l-.61,1-.54.23-4.88,4.88-.61-.61,4.88-4.88.23-.54,1-.61.05.05-.71.6a.41.41,0,0,0,.06.52c.13.13.4.2.53.08L23.4,12Z"/></g></g></g></svg>