<svg xmlns="http://www.w3.org/2000/svg" viewBox="0 0 65.74 23.72"><defs><style>.cls-1{isolation:isolate;}.cls-2{fill:#666;}.cls-3{fill:#281e35;}.cls-4{fill:#5c5c5c;}.cls-5{fill:#e5e5e5;}.cls-12,.cls-6{fill:#fff;}.cls-7{fill:#fccf12;}.cls-8{fill:#15939d;}.cls-9{fill:#f9c611;}.cls-10{fill:#eee9e4;}.cls-11,.cls-14{fill:#b3b3b3;mix-blend-mode:multiply;}.cls-11{opacity:0.32;}.cls-12{opacity:0.36;}.cls-13{fill:#333;}.cls-14{opacity:0.42;}</style></defs><title>insurance-02</title><g class="cls-1"><g id="Layer_2" data-name="Layer 2"><g id="Layer_1-2" data-name="Layer 1"><path class="cls-2" d="M59.79,12.2v7.94H6L3.68,12.52Z"/><path class="cls-3" d="M53.33,14.07a4.83,4.83,0,1,0,4.82,4.82A4.83,4.83,0,0,0,53.33,14.07Zm0,8.39A3.55,3.55,0,0,1,51.68,22l-.32-.19-.24-.18h0l-.26-.23h0a3.56,3.56,0,0,1-1.06-2.53,3.1,3.1,0,0,1,.06-.59c0-.12,0-.25.08-.37l.09-.29a2.08,2.08,0,0,1,.17-.35,3.51,3.51,0,0,1,2.64-1.91,2.5,2.5,0,0,1,.36,0h.31a2.46,2.46,0,0,1,.37,0,3.54,3.54,0,0,1,2.65,1.91,2.21,2.21,0,0,1,.16.35,2.51,2.51,0,0,1,.09.29,2.57,2.57,0,0,1,.08.37,3.23,3.23,0,0,1,.05.59,3.55,3.55,0,0,1-1.06,2.53l-.29.25a1.19,1.19,0,0,1-.25.18A1.88,1.88,0,0,1,55,22,3.45,3.45,0,0,1,53.33,22.45Z"/><path class="cls-4" d="M56.88,18.89a3.53,3.53,0,0,1-1.06,2.53l-.28.25a1.77,1.77,0,0,1-.25.18A2.57,2.57,0,0,1,55,22a3.45,3.45,0,0,1-1.64.41A3.56,3.56,0,0,1,51.68,22l-.33-.2-.24-.18h0l-.26-.23h0a3.54,3.54,0,0,1-1.06-2.53,3.63,3.63,0,0,1,.05-.59c0-.12.05-.25.09-.37s.06-.2.09-.29a2.17,2.17,0,0,1,.16-.35,3.52,3.52,0,0,1,2.64-1.91,2.65,2.65,0,0,1,.36,0h.31a2.62,2.62,0,0,1,.37,0,3.52,3.52,0,0,1,2.65,1.91,2.56,2.56,0,0,1,.15.35,1.74,1.74,0,0,1,.09.29,2.75,2.75,0,0,1,.08.37A3.46,3.46,0,0,1,56.88,18.89Z"/><path class="cls-5" d="M56.83,18.3a2.57,2.57,0,0,0-.08-.37,2.51,2.51,0,0,0-.09-.29,2.21,2.21,0,0,0-.16-.35,3.54,3.54,0,0,0-2.65-1.91,2.46,2.46,0,0,0-.37,0h-.31a2.5,2.5,0,0,0-.36,0,3.51,3.51,0,0,0-2.64,1.91,2.08,2.08,0,0,0-.17.35l-.09.29c0,.12-.06.25-.08.37a3.1,3.1,0,0,0-.06.59,3.56,3.56,0,0,0,1.06,2.53h0l.26.23h0l.24.18.32.19a3.55,3.55,0,0,0,1.65.42A3.45,3.45,0,0,0,55,22a1.88,1.88,0,0,0,.31-.19,1.19,1.19,0,0,0,.25-.18l.29-.25a3.55,3.55,0,0,0,1.06-2.53A3.23,3.23,0,0,0,56.83,18.3Zm-3-2.62a3.32,3.32,0,0,1,2.37,1.71l-1.52.5-.6.19-.25.08Zm-.52,2.89a.32.32,0,1,1-.32.32A.33.33,0,0,1,53.33,18.56Zm-.53-2.89v2.48l-.25-.08-.61-.19-1.5-.5A3.28,3.28,0,0,1,52.8,15.67ZM51,21.18a3.23,3.23,0,0,1-.94-2.29,3.13,3.13,0,0,1,0-.5l1.51.49.6.19.25.08-.16.21-.37.52Zm2.32,1a3.19,3.19,0,0,1-1.47-.35l.94-1.29.36-.52.16-.21.16.21.37.52.94,1.29A3.17,3.17,0,0,1,53.33,22.15Zm2.31-1-.94-1.29-.36-.52-.16-.21.24-.08.6-.19,1.52-.49a3,3,0,0,1,0,.5A3.23,3.23,0,0,1,55.64,21.18Z"/><path class="cls-6" d="M31.85,2.87H29c-.09,0-.14-.27-.1-.61L29.08.61c0-.33.23-.61.5-.61h1.73c.29,0,.41.27.44.61L32,2.26C32,2.6,31.94,2.87,31.85,2.87Z"/><path class="cls-7" d="M65.69,18.85a.32.32,0,0,1,0-.06s0,0,0-.05l0-.1a1.19,1.19,0,0,0-.07-.17l0,0-.05-.11-.08-.17L65.32,18a.78.78,0,0,1,0-.24V16.47c0-.12,0-.24,0-.36a.64.64,0,0,1,0-.13v-.25c0-.1,0-.19,0-.29s0-.2,0-.3l0-.28a2.14,2.14,0,0,0,0-.25l0-.23c0-.13,0-.23,0-.35h0a3.84,3.84,0,0,0-.37-1.32.5.5,0,0,0-.08-.15l-.08-.14c-.09-.15-.19-.29-.31-.44s-.14-.18-.2-.29l-.31-.43c-1.23-1.76-14.49-2-16.48-2.89C46.28,7.94,38.41,3.76,36,3c-1.25-.39-1.6-.47-7.18-.44H27.36C16.45,2.94,11.28,7.13,8,7.75c-2,.38-6.09.35-6.21.62,0,0,0,.14-.1.3s-.2.64-.32,1.06a3,3,0,0,0-.08.3l-.12.4c0,.07,0,.14,0,.2S1,11,1,11.2l0,.14a3,3,0,0,0-.06.37.34.34,0,0,0,0,.1,1.48,1.48,0,0,0,0,.26,1.69,1.69,0,0,1,0,.35s0,.05,0,.08a1.68,1.68,0,0,1-.24.35l0,0c0,.06-.08.11-.12.18l0,.07a2.07,2.07,0,0,0-.11.24.61.61,0,0,0,0,.08c0,.08-.06.17-.08.27a12.48,12.48,0,0,0,0,3.92,1.25,1.25,0,0,0,.07.25A.24.24,0,0,0,.32,18h0l.1,0a1.31,1.31,0,0,1,.25.15l.16.11.25.18.18.12.15.1.28.18.06,0,.63.34a5.91,5.91,0,0,0,1.28.42L4,19.8l.16,0c.5.1,1,.18,1.38.24l.37.05H6a6.08,6.08,0,0,1-.15-1.3,6,6,0,1,1,11.9,0,6.24,6.24,0,0,1-.15,1.31H47.53a5.68,5.68,0,0,1-.16-1.31,6,6,0,1,1,11.9,0,6.23,6.23,0,0,1-.15,1.31h3.66l.73,0,.47,0h.5l.31,0a1.75,1.75,0,0,0,.56-.19l.08-.06a.84.84,0,0,0,.19-.21.89.89,0,0,0,.07-.18A1,1,0,0,0,65.69,18.85ZM27.53,8.3a41.14,41.14,0,0,1,.35-5,65.88,65.88,0,0,1,7,.14,51.66,51.66,0,0,1,6.5,2.72l1.26.64h0c.54.28,1,.55,1.46.82a7.38,7.38,0,0,1,1.24.89,2,2,0,0,1,.14.15.1.1,0,0,1,0,.17.33.33,0,0,1-.13.07A8.66,8.66,0,0,1,43,9.12c-.42,0-.88,0-1.38,0-1.37,0-3,0-4.78-.09L35.05,9h0c-1.21-.06-2.46-.11-3.72-.19l-1,0-2.84-.17ZM20.34,4.13l.37-.1a28.25,28.25,0,0,1,3.67-.63c.76-.07,1.43-.12,1.88-.12h1a38.57,38.57,0,0,0-.35,5.27c-2-.12-4-.25-5.67-.38l-.52,0L19.3,8c-1.53-.12-2.78-.22-3.63-.31a3.3,3.3,0,0,1-.45,0l-.19,0-.29,0-.22,0C13.83,7.34,18.37,4.69,20.34,4.13Z"/><path class="cls-8" d="M45.36,8.87A8.52,8.52,0,0,1,43,9.12c-.42,0-.88,0-1.38,0-3.55,0-9-.25-14.08-.55a39,39,0,0,1,.36-5.32,65.71,65.71,0,0,1,7,.14c1,.17,9.32,3.69,10.6,5.23C45.59,8.72,45.53,8.8,45.36,8.87Z"/><path class="cls-8" d="M27.28,3.27a40.07,40.07,0,0,0-.36,5.27c-6.43-.4-12.12-.87-12.4-1-.68-.24,3.85-2.89,5.83-3.45a26.29,26.29,0,0,1,5.92-.85Z"/><path class="cls-9" d="M41.07,7c0,.4.05.92.09,1.31.1.95.93.05,1.11.18s-.55.46-.68.65A21.85,21.85,0,0,0,44,9.27c1.19,0,1.36-.2,1.33-.39A16.31,16.31,0,0,0,43,7.11c-.19-.11-.36-.21-.54-.29h0a2.08,2.08,0,0,0-.76-.22C41.49,6.58,41.07,6.66,41.07,7Z"/><path class="cls-10" d="M60.8,11.75c.27,1,.59,1.92,1.71,2.19a11.57,11.57,0,0,0,2.64.09,4.22,4.22,0,0,0-1.06-2.35C63,11.68,61.88,11.67,60.8,11.75Z"/><path class="cls-11" d="M65.71,19.39a.89.89,0,0,1-.07.18.84.84,0,0,1-.19.21l-.08.06a1.75,1.75,0,0,1-.56.19l-.31,0H64l-.47,0-.73,0H59.12a6.23,6.23,0,0,0,.15-1.31,6,6,0,1,0-11.9,0,5.68,5.68,0,0,0,.16,1.31H17.61a6.24,6.24,0,0,0,.15-1.31,6,6,0,1,0-11.9,0A6.08,6.08,0,0,0,6,20.13H5.88l-.37-.05c-.37-.06-.88-.14-1.38-.24L4,19.8l-.31-.06a5.91,5.91,0,0,1-1.28-.42L1.76,19l-.06,0-.28-.18-.15-.1-.18-.12-.25-.18-.16-.11a1.31,1.31,0,0,0-.25-.15l-.1,0h0a.24.24,0,0,1-.08-.13,1.25,1.25,0,0,1-.07-.25,12.48,12.48,0,0,1,0-3.92c0-.1.06-.19.08-.27a.61.61,0,0,1,0-.08,2.07,2.07,0,0,1,.11-.24l0-.07c0-.06.08-.12.12-.18l0,0a1.68,1.68,0,0,0,.24-.35s0-.05,0-.08a1.69,1.69,0,0,0,0-.35,1.48,1.48,0,0,1,0-.26.34.34,0,0,1,0-.1A3,3,0,0,1,1,11.34l0-.14c0-.18.09-.38.15-.58s0-.13,0-.2l.12-.4a3,3,0,0,1,.08-.3c.12-.42.24-.81.32-1.06L60.8,11.75h0a3.85,3.85,0,0,0,.74,1.64,2,2,0,0,0,1,.54l.31.05a7.86,7.86,0,0,0,1.15.07c.39,0,.78,0,1.16,0h0c0,.12,0,.22,0,.35l0,.23a2.14,2.14,0,0,1,0,.25l0,.28c0,.09,0,.19,0,.3s0,.19,0,.29V16a.64.64,0,0,0,0,.13c0,.12,0,.24,0,.36v1.26a.78.78,0,0,0,0,.24l.05.18.08.17.05.11,0,0a1.19,1.19,0,0,1,.07.17l0,.1s0,0,0,.05a.32.32,0,0,0,0,.06A1,1,0,0,1,65.71,19.39Z"/><path class="cls-3" d="M11.81,14a4.82,4.82,0,1,0,4.82,4.82A4.83,4.83,0,0,0,11.81,14Zm0,8.38A3.57,3.57,0,0,1,10.16,22l-.32-.19-.24-.18h0l-.26-.23h0a3.57,3.57,0,0,1-1.06-2.53,3.16,3.16,0,0,1,.06-.59c0-.12,0-.25.08-.37l.09-.29a2.12,2.12,0,0,1,.17-.35,3.51,3.51,0,0,1,2.64-1.91,2.41,2.41,0,0,1,.36,0H12a2.43,2.43,0,0,1,.37,0A3.54,3.54,0,0,1,15,17.22a3.1,3.1,0,0,1,.25.64,2.37,2.37,0,0,1,.08.37,3.16,3.16,0,0,1,.06.59,3.55,3.55,0,0,1-1.06,2.53L14,21.6a1.22,1.22,0,0,1-.25.18,2,2,0,0,1-.31.19A3.45,3.45,0,0,1,11.81,22.39Z"/><path class="cls-4" d="M15.36,18.82a3.53,3.53,0,0,1-1.06,2.53L14,21.6a1.6,1.6,0,0,1-.25.18,2.49,2.49,0,0,1-.32.2,3.45,3.45,0,0,1-1.64.41A3.56,3.56,0,0,1,10.16,22l-.33-.2-.24-.18h0l-.25-.23h0a3.54,3.54,0,0,1-1.06-2.53,3.46,3.46,0,0,1,.05-.6c0-.12.05-.25.09-.37s.06-.2.09-.29a2.18,2.18,0,0,1,.16-.35,3.52,3.52,0,0,1,2.64-1.91,2.73,2.73,0,0,1,.37,0H12a2.77,2.77,0,0,1,.37,0A3.52,3.52,0,0,1,15,17.22a2.4,2.4,0,0,1,.15.35,1.52,1.52,0,0,1,.09.29,2.39,2.39,0,0,1,.09.37A3.39,3.39,0,0,1,15.36,18.82Z"/><path class="cls-5" d="M15.31,18.23a2.37,2.37,0,0,0-.08-.37,3.1,3.1,0,0,0-.25-.64,3.54,3.54,0,0,0-2.65-1.91,2.43,2.43,0,0,0-.37,0h-.31a2.41,2.41,0,0,0-.36,0,3.51,3.51,0,0,0-2.64,1.91,2.12,2.12,0,0,0-.17.35l-.09.29c0,.12-.06.25-.08.37a3.16,3.16,0,0,0-.06.59,3.57,3.57,0,0,0,1.06,2.53h0l.26.23h0l.24.18.32.19a3.57,3.57,0,0,0,1.65.42A3.45,3.45,0,0,0,13.45,22a2,2,0,0,0,.31-.19A1.22,1.22,0,0,0,14,21.6l.29-.25a3.55,3.55,0,0,0,1.06-2.53A3.16,3.16,0,0,0,15.31,18.23Zm-3-2.62a3.31,3.31,0,0,1,2.37,1.71l-1.52.5-.6.19-.25.08Zm-.52,2.89a.32.32,0,1,1-.32.32A.33.33,0,0,1,11.81,18.5Zm-.52-2.89v2.48L11,18l-.61-.19-1.51-.5A3.28,3.28,0,0,1,11.28,15.61Zm-1.79,5.5a3.23,3.23,0,0,1-.94-2.29,2.94,2.94,0,0,1,0-.5l1.51.49.6.19.25.08-.16.21-.37.52Zm2.32,1a3.18,3.18,0,0,1-1.47-.35l.94-1.29.36-.52.16-.21.16.21.37.52.94,1.29A3.17,3.17,0,0,1,11.81,22.08Zm2.31-1-.94-1.29-.36-.52-.16-.21L12.9,19l.6-.19L15,18.32a2.85,2.85,0,0,1,0,.5A3.23,3.23,0,0,1,14.12,21.11Z"/><path class="cls-12" d="M21,4.61,18.31,7.3l-1.65-.14L18,5.82a14.67,14.67,0,0,1,2.47-1.07Z"/><path class="cls-12" d="M26.5,3.93c-.09.77-.16,1.49-.2,2.2L24.67,7.75,21.05,7.5,24.52,4c.68-.07,1.27-.1,1.69-.1Z"/><path class="cls-12" d="M35.31,4.21l-3.94,4L28.12,8a37.7,37.7,0,0,1,.28-4l.12-.12,2.14,0A33.33,33.33,0,0,1,34.75,4,4.11,4.11,0,0,1,35.31,4.21Z"/><rect class="cls-13" x="21.51" y="14" width="1.52" height="1.52"/><rect class="cls-13" x="19.99" y="12.48" width="1.52" height="1.52"/><rect class="cls-13" x="18.46" y="14" width="1.52" height="1.52"/><rect class="cls-13" x="16.94" y="12.48" width="1.52" height="1.52"/><rect class="cls-13" x="26.07" y="12.48" width="1.52" height="1.52"/><rect class="cls-13" x="24.55" y="14" width="1.52" height="1.52"/><rect class="cls-13" x="23.03" y="12.48" width="1.52" height="1.52"/><rect class="cls-13" x="39.75" y="14" width="1.52" height="1.52"/><rect class="cls-13" x="38.23" y="12.48" width="1.52" height="1.52"/><rect class="cls-13" x="36.71" y="14" width="1.52" height="1.52"/><rect class="cls-13" x="35.19" y="12.48" width="1.52" height="1.52"/><rect class="cls-13" x="45.83" y="14" width="1.52" height="1.52"/><rect class="cls-13" x="44.31" y="12.48" width="1.52" height="1.52"/><rect class="cls-13" x="42.79" y="14" width="1.52" height="1.52"/><rect class="cls-13" x="41.27" y="12.48" width="1.52" height="1.52"/><path class="cls-13" d="M29,13h-.47v-.45h1.39V13h-.47v2.5H29Z"/><path class="cls-13" d="M30.43,14.8l-.11.68h-.46l.5-3H31l.49,3H31l-.11-.68Zm.23-1.6-.16,1.16h.33Z"/><path class="cls-13" d="M33.42,15.48h-.48l-.34-.94-.35.94h-.48L32.36,14l-.58-1.47h.49l.33.91.33-.91h.49L32.84,14Z"/><path class="cls-13" d="M34.23,15.48h-.45v-3h.45Z"/><path class="cls-14" d="M65.71,19.4a.88.88,0,0,1-.07.18.83.83,0,0,1-.19.21l-.08.05a1.75,1.75,0,0,1-.56.19l-.31,0H64l-.47,0c-.35,0-.54,0-.73,0H59.12a6.25,6.25,0,0,0,.15-1.31,5.51,5.51,0,0,0-.08-1l6.09-.13a.69.69,0,0,0,0,.22l.06.18c0,.06.05.11.08.17a.53.53,0,0,0,.06.11l0,0a1,1,0,0,1,.07.17l0,.1s0,0,0,.05a.38.38,0,0,0,0,.06A1,1,0,0,1,65.71,19.4Z"/><path class="cls-14" d="M47.53,20.15H17.61a6.25,6.25,0,0,0,.15-1.31,4.86,4.86,0,0,0,0-.53c9.2.31,20.17.14,29.67-.09,0,.2,0,.41,0,.63A5.68,5.68,0,0,0,47.53,20.15Z"/><path class="cls-14" d="M5.85,18.84A6.08,6.08,0,0,0,6,20.14H5.88l-.37-.06c-.37-.06-.88-.14-1.38-.24l-.16,0-.31-.06a6,6,0,0,1-1.28-.42c-.23-.12-.44-.23-.63-.34l-.06,0-.28-.19a.75.75,0,0,1-.15-.1l-.18-.12-.25-.18-.16-.11a1.23,1.23,0,0,0-.25-.15l-.1,0h0a.24.24,0,0,1-.08-.13,1.23,1.23,0,0,1-.07-.25A11.84,11.84,0,0,1,0,16.1a26.53,26.53,0,0,0,6,1.35A5.79,5.79,0,0,0,5.85,18.84Z"/></g></g></g></svg>