<svg xmlns="http://www.w3.org/2000/svg" viewBox="0 0 54.19 29.38"><defs><style>.cls-1{isolation:isolate;}.cls-2{fill:#fff;}.cls-3{fill:#eec4a7;}.cls-4,.cls-8{fill:#8a8a8a;}.cls-4{opacity:0.2;}.cls-10,.cls-4,.cls-8{mix-blend-mode:multiply;}.cls-5{fill:#5e8c74;}.cls-6{fill:#dbdbdb;}.cls-7{fill:#f8eacb;}.cls-8{opacity:0.43;}.cls-9{fill:#11787f;}.cls-10{opacity:0.67;}.cls-11{fill:#878787;}.cls-12,.cls-13{font-size:13.32px;font-family:DBHelvethaicaX-75Bd, DB Helvethaica X;}.cls-12{fill:#ff27ad;stroke:#fff;stroke-miterlimit:10;}.cls-13{fill:#fc1f5e;}.cls-14{fill:#a0dada;}.cls-15{fill:#fea621;}.cls-16{fill:#f2f2f2;}</style></defs><title>insurance-04</title><g class="cls-1"><g id="Layer_2" data-name="Layer 2"><g id="Layer_1-2" data-name="Layer 1"><rect class="cls-2" x="43.8" y="12.11" width="3.71" height="11.79"/><path class="cls-3" d="M35.41,9.78a18.49,18.49,0,0,0-4-1.17L25,8.45h-.46l-.17,0-.17,0L24,8.58h0l-.09,0-.06,0a1.79,1.79,0,0,0-.31.21l-.38.39-.73.76,2.87,2.84,1.9,1.89h1v0L29,16l.41.38L30.28,21h0l.36,0,1.12.09,2,.16,10,.83v-8.7Z"/><path class="cls-4" d="M43.8,13.36v8.7l-4-.33A6.28,6.28,0,0,0,41,19.95a20.41,20.41,0,0,0,1.42-7.17Z"/><path class="cls-5" d="M19.54,28.69l-.54.08c-.23-9.27-3.74-17.57-4-26.84l.54-.08C15.8,11.12,19.31,19.42,19.54,28.69Z"/><path class="cls-6" d="M30.4,27.08l-10.85,1.6c-.23-9.27-3.75-17.57-4-26.84L26.42.24A17.58,17.58,0,0,0,26.54,6a32.06,32.06,0,0,0,.83,4c.27,1,.42,1.56.73,2.6h0l.65,2.2a39.78,39.78,0,0,1,1.58,6.8A17.34,17.34,0,0,1,30.4,27.08Z"/><path class="cls-5" d="M21.1,6.74a1.5,1.5,0,0,1,1.69,1.2,1.35,1.35,0,0,1-1.14,1.62,1.55,1.55,0,0,1-1.74-1.19A1.39,1.39,0,0,1,21.1,6.74Z"/><path class="cls-5" d="M24.39,19.66a1.54,1.54,0,0,1,1.73,1.19,1.41,1.41,0,0,1-1.22,1.63,1.48,1.48,0,0,1-1.67-1.2A1.36,1.36,0,0,1,24.39,19.66Z"/><path class="cls-5" d="M16.23,2.83c-.21,8.53,4.39,16.08,4.19,24.61l.12.1,9.05-1.34.14-.15c.19-8.53-4.41-16.07-4.19-24.6l-.13-.11L16.37,2.69Zm6.65-.07A1.23,1.23,0,0,0,24.4,3.92c.63,6.87,3.57,13.14,4.22,20a1.72,1.72,0,0,0-1.47,1.6l-4.07.6A1.23,1.23,0,0,0,21.55,25C20.9,18.1,18,11.83,17.33,5a1.72,1.72,0,0,0,1.48-1.6Z"/><path class="cls-5" d="M26.07,14.24a3.62,3.62,0,0,0-3.88-2.52A2.61,2.61,0,0,0,20,15.14a3.61,3.61,0,0,0,3.88,2.52A2.62,2.62,0,0,0,26.07,14.24ZM21.9,15.79a1.16,1.16,0,0,1-.38-.43l-.08-.17-.35.06-.15-.5.37-.05a1,1,0,0,1,0-.4.8.8,0,0,1,.23-.4,1,1,0,0,1,.44-.22l.23.64a.57.57,0,0,0-.38.28.39.39,0,0,0,0,.3.56.56,0,0,0,.27.33.38.38,0,0,0,.25,0,.49.49,0,0,0,.35-.32l.26-.68a1.75,1.75,0,0,1,.3-.55.75.75,0,0,1,.44-.23.92.92,0,0,1,.83.31,1.25,1.25,0,0,1,.24.37l.36-.05.14.5-.35.06a1.23,1.23,0,0,1,0,.39.71.71,0,0,1-.53.58L24.13,15a.45.45,0,0,0,.28-.21.38.38,0,0,0,0-.28.42.42,0,0,0-.21-.27.45.45,0,0,0-.28,0,.57.57,0,0,0-.4.34,2.15,2.15,0,0,0-.13.34c-.05.17-.09.29-.12.35a1.56,1.56,0,0,1-.27.45l-.13.13a.65.65,0,0,1-.3.15A1,1,0,0,1,21.9,15.79Z"/><path class="cls-5" d="M20.43,29.21l-.52.17c-1.8-9.1-6.67-16.68-8.47-25.78L12,3.43C13.76,12.52,18.64,20.11,20.43,29.21Z"/><path class="cls-2" d="M30.86,25.78,20.44,29.2C18.64,20.1,13.76,12.52,12,3.43L22.39,0a17.59,17.59,0,0,0,1.1,5.7A31.78,31.78,0,0,0,25,9.45c.44,1,.68,1.47,1.16,2.44h0l1,2.06a39.66,39.66,0,0,1,2.71,6.43A17.43,17.43,0,0,1,30.86,25.78Z"/><path class="cls-5" d="M18.24,7.31a1.5,1.5,0,0,1,1.86.9A1.35,1.35,0,0,1,19.25,10a1.55,1.55,0,0,1-1.92-.88A1.4,1.4,0,0,1,18.24,7.31Z"/><path class="cls-5" d="M23.68,19.49a1.54,1.54,0,0,1,1.91.88,1.42,1.42,0,0,1-.92,1.81,1.48,1.48,0,0,1-1.85-.9A1.36,1.36,0,0,1,23.68,19.49Z"/><path class="cls-5" d="M12.78,4.29c1.24,8.44,7.05,15.1,8.31,23.54l.14.08L29.92,25l.12-.17C28.78,16.44,23,9.79,21.73,1.35l-.14-.08L12.9,4.12Zm6.55-1.2A1.23,1.23,0,0,0,21,4c1.79,6.66,5.75,12.34,7.55,19a1.72,1.72,0,0,0-1.18,1.83l-3.91,1.29a1.23,1.23,0,0,0-1.7-.89C20,18.54,16,12.86,14.23,6.2a1.72,1.72,0,0,0,1.18-1.83Z"/><path class="cls-5" d="M24.42,13.86A3.63,3.63,0,0,0,20.17,12a2.62,2.62,0,0,0-1.56,3.74,3.62,3.62,0,0,0,4.25,1.83A2.62,2.62,0,0,0,24.42,13.86Zm-3.85,2.23a1.18,1.18,0,0,1-.45-.36L20,15.57l-.33.11-.23-.47.35-.11a1.06,1.06,0,0,1,0-.4.79.79,0,0,1,.16-.43,1,1,0,0,1,.4-.29l.34.6a.57.57,0,0,0-.32.34.39.39,0,0,0,0,.3.56.56,0,0,0,.33.28.37.37,0,0,0,.25,0,.49.49,0,0,0,.29-.37l.14-.71a1.74,1.74,0,0,1,.2-.59.74.74,0,0,1,.39-.3.92.92,0,0,1,.88.16,1.23,1.23,0,0,1,.3.32l.34-.11.23.46-.34.11a1.24,1.24,0,0,1,.07.39.71.71,0,0,1-.11.39.73.73,0,0,1-.31.27l-.39-.59a.44.44,0,0,0,.24-.25.38.38,0,0,0,0-.28.43.43,0,0,0-.25-.23.45.45,0,0,0-.28,0,.57.57,0,0,0-.34.4,2,2,0,0,0-.07.36c0,.18,0,.31-.06.36a1.56,1.56,0,0,1-.19.49,1.23,1.23,0,0,1-.11.15.66.66,0,0,1-.27.2A1,1,0,0,1,20.57,16.09Z"/><path class="cls-3" d="M30.28,21H30l-1.46-.08-.29,0L25,20.68l-2.42-.13c-.87,0-.61-.05-1.47-.05a4.53,4.53,0,0,1-3.34-1.05,1.66,1.66,0,0,1,.29-2.53l.06,0A6.3,6.3,0,0,1,21,16.43c.46,0,.79,0,1.22,0h.52l5.44-.11h.62l.62,0Z"/><path class="cls-7" d="M20.66,19.15c-.06.34-.17.4-.6.4-.76,0-1.86-.12-2.15-.89a2.4,2.4,0,0,1-.09-.41c-.1-.8.53-1.25,1.61-1.45a2.86,2.86,0,0,1,.94-.08.43.43,0,0,1,.23.17,1.49,1.49,0,0,0-.86.77A1.29,1.29,0,0,0,20.66,19.15Z"/><path class="cls-8" d="M29.45,16.33,29.09,16c-.1-.37-.22-.77-.35-1.2l-.65-2.2h0c-.3-1-.45-1.56-.72-2.6-.15-.58-.27-1-.37-1.49l1.73,0A35,35,0,0,0,29.45,16.33Z"/><rect class="cls-9" x="47.18" y="11.11" width="7.01" height="13.78"/><g class="cls-10"><path class="cls-11" d="M29.19,16.34h-1l-.83,0h-.21l-1,0h-.31l-1.47,0-1.6,0h-.52c-.43,0-.76,0-1.22,0h-.28c-.3,0-.6,0-.89,0a7.15,7.15,0,0,0-.71.08l-.41.08-.25.07a1.18,1.18,0,0,0-.36.18l-.06,0-.12.11h0l0,0,0-.09h0a1.94,1.94,0,0,1,.38-.65,1.81,1.81,0,0,1,.27-.27l.13-.1a3.45,3.45,0,0,1,.88-.46h0a4.07,4.07,0,0,1,.5-.15l.31-.06a4.46,4.46,0,0,1,.68-.08h1l.39,0,.38,0,.42,0h.06l1,.07.42,0h.1l.9.06.46,0,.76,0h0c.3,0,.6,0,.91,0l.21,0,.82-.08.18.63C29.13,16.11,29.16,16.22,29.19,16.34Z"/></g><text class="cls-12" transform="translate(10.31 12.78)">+</text><text class="cls-13" transform="translate(10.31 12.78)">+</text><path class="cls-14" d="M13.23,19.77a2.64,2.64,0,0,0-2.85-1.06l-2-2L8,17.16l1.31,1.31a.48.48,0,1,1-.68.68L7.34,17.84l-.41.42L8.71,20a2.64,2.64,0,0,0,2.54,3.86l-1.2-1.74a.52.52,0,0,1,.14-.73l1.32-.91a.53.53,0,0,1,.73.13l1.19,1.74A2.64,2.64,0,0,0,13.23,19.77ZM4.94,14.29a.47.47,0,0,1,.34.14l1.47,1.47.41-.41-1.9-1.9a2.64,2.64,0,0,0-2.6-3.81L3.87,11.5a.53.53,0,0,1-.13.73l-1.31.92A.52.52,0,0,1,1.7,13L.49,11.29a2.64,2.64,0,0,0,3.13,3.65l2,2,.41-.41L4.61,15.11a.48.48,0,0,1,0-.68A.47.47,0,0,1,4.94,14.29Z"/><rect class="cls-15" x="5.32" y="17.03" width="0.57" height="2.55" rx="0.23" ry="0.23" transform="translate(-11.3 9.32) rotate(-45)"/><path class="cls-15" d="M5.81,19.58,2.57,23.1l-.4.43a1.23,1.23,0,0,1-.42.28,1.15,1.15,0,0,1-.36.09H1.28a1.26,1.26,0,0,1-.9-.37,1.27,1.27,0,0,1,0-1.8l.43-.4L4.33,18.1Z"/><path class="cls-16" d="M12.43,12l-.61,1-.54.23L6.39,18.13l-.61-.61,4.88-4.88.23-.54,1-.61.05.05-.71.6a.41.41,0,0,0,.06.52c.13.13.4.2.53.08l.58-.73Z"/></g></g></g></svg>