<svg xmlns="http://www.w3.org/2000/svg" viewBox="0 0 47.13 33.44"><defs><style>.cls-1{isolation:isolate;}.cls-2{fill:#d9d9d9;}.cls-3{fill:#c06c09;}.cls-4{fill:#fecd0e;}.cls-5{fill:#f4a600;}.cls-6{fill:#262529;}.cls-7{fill:#303030;}.cls-11,.cls-8{mix-blend-mode:screen;}.cls-9{fill:#2b2b2b;}.cls-10{fill:#504e51;}.cls-11,.cls-12{fill:#fff;}.cls-13{opacity:0.5;}.cls-14{fill:#527275;}.cls-15{opacity:0.04;}.cls-16{fill:#153e49;}.cls-17{fill:#e6e6e6;}.cls-18{opacity:0.22;}.cls-19{fill:#8cad81;}.cls-20{fill:#f7d77f;}.cls-21{fill:#e5c573;}</style></defs><title>insurance-01</title><g class="cls-1"><g id="Layer_2" data-name="Layer 2"><g id="Layer_1-2" data-name="Layer 1"><ellipse class="cls-2" cx="23.57" cy="31.74" rx="23.57" ry="1.7"/><path class="cls-3" d="M13.15,14.5a.86.86,0,0,0,0-.14v-1a.68.68,0,0,0-.67-.69h-2a.68.68,0,0,0-.67.69v1a.68.68,0,0,0,.67.69h3.18V14.5Z"/><path class="cls-3" d="M35,14.5a.8.8,0,0,1,0-.14v-1a.68.68,0,0,1,.67-.69h2a.68.68,0,0,1,.66.69v1a.68.68,0,0,1-.66.69H34.46V14.5Z"/><path class="cls-4" d="M13.15,15.53,14,12.44c.49-1.71,1.09-4.25,4.12-4.25H30c3,0,3.63,2.55,4.12,4.25L35,15.53Z"/><path class="cls-5" d="M8.8,24.07l.31,3.12c0,.63-.09,1.15.53,1.15H38.5c.61,0,.52-.51.52-1.15l.31-3.12Z"/><path class="cls-4" d="M38.94,20a1.74,1.74,0,0,0-.27-1.07h0a1,1,0,0,0-.24-.22L35,15.53H13.14l-3.3,3.29a1.45,1.45,0,0,0-.28.28l0,0h0a2.28,2.28,0,0,0-.34,1.35L8.8,24.07H39.33Z"/><path class="cls-5" d="M14.27,15.83S14,21.5,15.43,21.5s2.71-.05,2.71-.05,0-4.22-1.94-4.92Z"/><path class="cls-5" d="M33.86,15.83s.23,5.67-1.16,5.67S30,21.45,30,21.45s0-4.22,1.94-4.92Z"/><path class="cls-6" d="M14,15.05l.49-2c.45-1.84.13-2.86,2.65-2.86H31c2.51,0,2.2,1,2.64,2.86l.49,2Z"/><path class="cls-7" d="M34.51,15.3H13.65l.57-2.36c.07-.3.13-.58.17-.84.25-1.33.41-2.22,2.72-2.22H31c2.31,0,2.47.88,2.72,2.22,0,.26.1.54.17.84Zm-20.2-.51H33.86l-.42-1.73c-.07-.31-.13-.6-.18-.86-.24-1.27-.34-1.8-2.22-1.8H17.12c-1.88,0-2,.53-2.22,1.8,0,.26-.1.55-.18.86Z"/><g class="cls-8"><path class="cls-9" d="M29.9,10.17a19.66,19.66,0,0,1,2.61.18A3.88,3.88,0,0,0,31,10.14H17.12c-2.52,0-2.2,1-2.65,2.86l-.49,2h3A19.82,19.82,0,0,1,29.9,10.17Z"/></g><path class="cls-10" d="M13.09,31.74H10.91A1.21,1.21,0,0,1,9.64,30.6V28.33h4.72V30.6A1.21,1.21,0,0,1,13.09,31.74Z"/><path class="cls-10" d="M37.1,31.74H34.92a1.21,1.21,0,0,1-1.27-1.14V28.33h4.72V30.6A1.21,1.21,0,0,1,37.1,31.74Z"/><path class="cls-3" d="M10,25.29l-.11,1.62a.62.62,0,0,0,.62.68h2.82c.37,0,.57-.29.36-.6a6.43,6.43,0,0,0-3-2.15A.47.47,0,0,0,10,25.29Z"/><ellipse class="cls-11" cx="11.29" cy="26.5" rx="0.71" ry="0.73"/><path class="cls-3" d="M38.34,25.22l.11,1.62a.62.62,0,0,1-.62.68H35c-.37,0-.57-.3-.36-.61a6.46,6.46,0,0,1,3-2.15A.47.47,0,0,1,38.34,25.22Z"/><ellipse class="cls-11" cx="36.99" cy="26.45" rx="0.71" ry="0.73"/><path class="cls-3" d="M31.69,27.53H16.44A2.1,2.1,0,0,1,15,26.88l-1.29-1.5c-.31-.36-.19-.65.27-.65H34.11c.46,0,.58.29.27.65l-1.29,1.5A2.09,2.09,0,0,1,31.69,27.53Z"/><path class="cls-3" d="M11.34,19.1s4.65.27,5.06,1.76-1.22,1.76-1.22,1.76S10.34,24,9.91,20.86C9.63,18.83,11.34,19.1,11.34,19.1Z"/><path class="cls-3" d="M36.87,19.1s-4.65.27-5.06,1.76S33,22.61,33,22.61,37.87,24,38.3,20.86C38.58,18.83,36.87,19.1,36.87,19.1Z"/><path class="cls-3" d="M32.51,22.38a59.61,59.61,0,0,1-16.82,0l.22-1.51a58.14,58.14,0,0,0,16.39,0Z"/><path class="cls-12" d="M13,22.33c-1.52,0-2.33-.51-2.47-1.55a1.86,1.86,0,0,1,0-.64s.15-.45.47-.45.11,0,.19,0h.13c1.48.09,3.82.5,4.43,1.14,0,0,.58.71-.62,1.22l-.09,0A8.65,8.65,0,0,1,13,22.33Z"/><path class="cls-12" d="M35.18,22.33c1.52,0,2.33-.51,2.47-1.55a1.88,1.88,0,0,0,0-.64s-.15-.45-.47-.45-.11,0-.19,0h-.13c-1.49.09-3.82.5-4.42,1.14,0,0-.58.71.62,1.22l.09,0A8.61,8.61,0,0,0,35.18,22.33Z"/><path class="cls-13" d="M26,11.21a.51.51,0,0,1-.51.51H22.73a.51.51,0,0,1-.51-.51h0a.51.51,0,0,1,.51-.51h2.79a.51.51,0,0,1,.51.51Z"/><rect class="cls-13" x="23.75" y="10.14" width="0.7" height="0.56"/><path class="cls-12" d="M29,27.11h-9.8c-1.14,0-1-.53-1-1.19s.78-1.19,1.75-1.19h8.35c1,0,1.75.53,1.75,1.19S30.1,27.11,29,27.11Z"/><rect class="cls-14" x="32.35" y="1.84" width="10.64" height="14.53" rx="0.65" ry="0.65"/><rect class="cls-12" x="33.05" y="2.98" width="9.25" height="12.63" rx="0.17" ry="0.17"/><path class="cls-15" d="M42.48,16.34H33a.61.61,0,0,1-.65-.56l0-13.29Z"/><path class="cls-16" d="M35.77,7.28H33.6V5.11h2.17ZM33.68,7.2h2v-2h-2Z"/><path class="cls-16" d="M35.77,10.55H33.6V8.38h2.17Zm-2.09-.08h2v-2h-2Z"/><path class="cls-16" d="M35.77,13.83H33.6V11.66h2.17Zm-2.09-.08h2v-2h-2Z"/><rect class="cls-17" x="36.93" y="5.28" width="4.47" height="0.22"/><rect class="cls-17" x="36.93" y="5.97" width="4.47" height="0.22"/><rect class="cls-17" x="36.93" y="6.65" width="4.47" height="0.22"/><rect class="cls-17" x="36.93" y="8.63" width="4.47" height="0.22"/><rect class="cls-17" x="36.93" y="9.32" width="4.47" height="0.22"/><rect class="cls-17" x="36.93" y="10" width="4.47" height="0.22"/><rect class="cls-17" x="36.93" y="11.78" width="4.47" height="0.22"/><rect class="cls-17" x="36.93" y="12.46" width="4.47" height="0.22"/><rect class="cls-17" x="36.93" y="13.15" width="4.47" height="0.22"/><polygon class="cls-18" points="36.12 4.84 34.58 5.98 34.16 5.56 33.76 5.82 34.56 6.45 36.39 4.91 36.12 4.84"/><polygon class="cls-19" points="33.84 5.72 34.12 5.53 34.54 5.96 36.11 4.81 36.23 4.84 34.53 6.26 33.84 5.72"/><path class="cls-19" d="M34.53,6.29l-.73-.57.32-.22.42.42L36.1,4.78l.17,0Zm-.65-.57.65.51,1.65-1.38-.06,0L34.54,6l-.42-.43Z"/><polygon class="cls-18" points="36.28 8.52 34.73 9.66 34.32 9.23 33.92 9.5 34.72 10.13 36.55 8.59 36.28 8.52"/><polygon class="cls-19" points="34 9.4 34.28 9.21 34.7 9.64 36.27 8.48 36.38 8.52 34.69 9.94 34 9.4"/><path class="cls-19" d="M34.69,10,34,9.4l.32-.22.42.42,1.56-1.15.17,0ZM34,9.4l.65.51,1.65-1.38-.06,0L34.7,9.67l-.42-.43Z"/><polygon class="cls-18" points="36.28 11.54 34.73 12.68 34.32 12.25 33.92 12.52 34.72 13.15 36.55 11.61 36.28 11.54"/><polygon class="cls-19" points="34 12.42 34.28 12.23 34.7 12.66 36.27 11.5 36.38 11.54 34.69 12.96 34 12.42"/><path class="cls-19" d="M34.69,13,34,12.42l.32-.22.42.42,1.56-1.15.17,0ZM34,12.42l.65.51,1.65-1.38-.06,0L34.7,12.69l-.42-.43Z"/><path class="cls-20" d="M40.61,1.47H39V1.25A1.25,1.25,0,0,0,37.78,0h0a1.25,1.25,0,0,0-1.25,1.25v.23H34.93a.15.15,0,0,0-.15.15v1.6a.15.15,0,0,0,.15.15h5.68a.15.15,0,0,0,.15-.15V1.62A.15.15,0,0,0,40.61,1.47Zm-2.84-.15a.42.42,0,1,1,.42-.42A.42.42,0,0,1,37.77,1.33Z"/><rect class="cls-21" x="34.78" y="2.86" width="5.98" height="0.25"/><path class="cls-21" d="M40.73,3.28H34.81a0,0,0,0,1,0,0V3.17h6v.08A0,0,0,0,1,40.73,3.28Z"/></g></g></g></svg>